<svg width="104" height="38" viewBox="0 0 104 38" xmlns="http://www.w3.org/2000/svg"><title>Bilibili</title><g fill="#fff" fill-rule="evenodd"><path d="M46.184 6.084c-.075.033-1.11.42-2.293.86s-2.172.827-2.195.86c-.022.034.063.574.19 1.202a201.16 201.16 0 0 1 1.942 11.077c.403 2.706.8 6.81 1.13 11.706.06.864.12 1.58.134 1.595.057.056 2.43-.132 3.8-.3 3.12-.386 5.248-.936 7.23-1.87 2.197-1.037 3.403-2.486 3.3-3.963-.046-.61-.31-1.032-.94-1.505-1.302-.98-3.49-1.754-6.407-2.267-1.14-.2-1.366-.22-3.002-.233-.97-.01-1.784-.033-1.803-.05-.08-.08-.302-1.116-.394-1.853-.262-2.1-.398-6.905-.335-11.815.043-3.437.04-3.52-.086-3.515a.84.84 0 0 0-.265.064zm4.498 20.38c.89.315 3.27 1.31 3.37 1.406.03.03-.128.186-.347.347l-1.917 1.407c-.835.613-1.55 1.113-1.592 1.113-.042 0-.09-.068-.112-.157-.08-.348-.63-4.317-.602-4.364.062-.11.386-.043 1.2.247zM77.197 6.292c-.375.144-1.41.53-2.293.853-.883.325-1.643.62-1.684.653-.053.043.013.505.222 1.55 1.17 5.852 2.02 11.186 2.45 15.38.165 1.59.655 8.024.655 8.584 0 .17 1.52.086 4.005-.218 1.63-.2 2.448-.353 3.86-.722 2.603-.68 4.483-1.623 5.566-2.79.728-.785 1.085-1.725.943-2.485-.113-.618-.42-1.004-1.213-1.533-1.468-.98-4.203-1.836-7.03-2.204-.875-.113-1.377-.138-2.486-.122-1.253.02-1.396.01-1.455-.095-.036-.064-.14-.553-.23-1.093-.358-2.09-.45-4.323-.45-10.79 0-4.152-.02-5.243-.086-5.238-.05.004-.395.125-.77.27zm4.91 20.134c.867.298 2.053.776 2.93 1.18l.58.27-.17.14c-.438.36-3.707 2.72-3.765 2.72-.04 0-.084-.067-.104-.156-.057-.26-.58-4.104-.58-4.268 0-.22.198-.2 1.108.114zM63.917 9.2c-.604.055-1.126.13-1.16.165-.043.04-.038.222.01.495.63 3.503 1.004 5.79 1.287 7.867.353 2.602.932 7.392 1.023 8.47.172 2.027.4 4.03.46 4.07.227.138 1.806.14 2.02.003.068-.044-.138-3.112-.456-6.772-.073-.884-.2-2.48-.276-3.55-.077-1.07-.23-3.102-.34-4.508a386.14 386.14 0 0 1-.304-4.27c-.06-.94-.123-1.758-.144-1.822-.074-.235-.71-.28-2.12-.15M96.4 9.136c-.958.058-2.097.18-2.15.228-.03.03.042.558.158 1.172.86 4.546 1.85 11.944 2.333 17.462.134 1.503.22 2.23.28 2.263.15.09.937.15 1.416.1.733-.066.72-.06.673-.495-.057-.52-.403-4.938-.654-8.346a694.86 694.86 0 0 0-.272-3.586c-.154-1.87-.288-3.688-.448-6.07-.116-1.73-.195-2.552-.252-2.606-.096-.09-.616-.148-1.08-.12m-36.097 5.12c-.03.06.317 3.416.406 3.914l.055.31h1.437l-.02-.48c-.025-.634-.214-2.98-.275-3.413l-.05-.343-.762-.02c-.42-.01-.778.004-.794.034m31.47.24c.022.163.07.565.103.906.124 1.195.292 2.597.34 2.828l.05.232.73.017c.7.016.734.01.734-.12 0-.205-.266-3.53-.31-3.865l-.036-.287h-1.65l.04.29m-33.06.01c-.445.12-.552.172-.568.29-.026.176.727 3.86.804 3.94.067.07 1.03-.08 1.152-.18.05-.043.073-.135.052-.217-.043-.17-.35-2.2-.48-3.155-.05-.383-.112-.728-.136-.765-.063-.098-.19-.085-.827.086m31.496.004c-.33.093-.555.193-.566.25-.024.11.762 3.936.817 3.99.05.05 1.103-.1 1.17-.166.078-.075-.488-3.994-.602-4.18-.057-.09-.19-.073-.82.106m-19.665.162c-.022.052-.023 1.004-.004 2.11.026 1.557.054 2.027.123 2.07.13.08 1.304.162 1.365.095.07-.077.144-4.076.076-4.186-.08-.13-1.516-.21-1.563-.088m31.508-.062c-.043.045-.038 1.352.012 2.896.05 1.534-.05 1.377.922 1.454l.59.046.05-2.017c.027-1.113.03-2.08.006-2.158-.03-.092-.12-.152-.264-.175-.308-.05-1.28-.084-1.317-.047m-32.824.055c-.092.015-.34.06-.537.1l-.366.07.043.383c.065.57.38 3.658.38 3.718 0 .063.79.07 1.1.01.212-.043.217-.05.18-.324a51.393 51.393 0 0 1-.116-1.987c-.044-.943-.105-1.775-.137-1.858-.06-.156-.147-.173-.544-.11m31.297.053c-.316.05-.604.12-.64.158-.072.07.014 1.05.275 3.156l.114.922.56.02c.5.018.57.006.632-.113.05-.094.04-.693-.036-2.03-.1-1.79-.156-2.224-.283-2.207l-.626.095M61.11 19.997c-.44.064-1.834.357-1.87.394-.042.045.223 1.717.547 3.45.51 2.74 1.48 7.657 1.514 7.69.04.04 2.19-.23 2.37-.3.078-.026.088-.136.05-.553a745.87 745.87 0 0 1-.18-2.226c-.28-3.517-.8-7.9-.98-8.297-.075-.16-.114-.17-.66-.178a7.57 7.57 0 0 0-.79.023m31.39.02c-.706.107-1.655.324-1.726.394-.104.106.16 1.628 1.322 7.63.227 1.168.46 2.378.518 2.698.14.75.19.846.406.79.092-.026.6-.105 1.134-.18.883-.12 1.192-.21 1.12-.33-.013-.023-.075-.717-.137-1.543-.063-.828-.19-2.254-.282-3.176-.52-5.142-.654-6.09-.892-6.264-.136-.1-.856-.108-1.466-.016m-22.147.442a8.772 8.772 0 0 1-.73.07c-.542.035-.672.065-.703.16-.07.216.807 10.31.965 11.124.03.157.03.157.9.118 1.534-.07 1.57-.076 1.616-.323.023-.12.04-2 .04-4.176-.004-3.825-.07-6.503-.172-6.754-.025-.066-.155-.148-.292-.186-.233-.065-1.46-.088-1.623-.03m30.776.036c-.356.038-.672.09-.698.116-.07.073.458 6.474.764 9.233.074.653.154 1.385.18 1.62.023.23.065.44.09.456.083.05 2.364-.1 2.425-.16.03-.03.056-2.11.057-4.623.004-4.767-.058-6.388-.252-6.584-.127-.128-1.57-.16-2.563-.06M26.09.046a1.47 1.47 0 0 0-.563.42c-.156.192-.48.664-2.254 3.278L21.06 7.007c-.52.764-1.032 1.478-1.138 1.586-.468.477-1.426.734-2.157.58-.34-.073-.234-.02-2.5-1.266-4.84-2.666-8.258-4.508-8.443-4.55-.436-.103-.77.063-1.012.503-.12.217-.138.286-.138.502 0 .31.132.565.384.742.168.12 2.038 1.154 5.23 2.895.973.53 1.78.973 1.796.99.014.01.017.063.005.11l-.02.086-12.356.02-.22.107c-.17.085-.242.148-.325.29l-.105.18-.026 1.005c-.014.55-.027 6-.03 12.105C0 35.13-.016 34.243.24 34.51c.07.072.202.166.298.21.164.078.254.083 1.673.1 1.43.02 1.51.025 1.637.1.186.11.285.276.425.704.207.634.446 1.032.853 1.42.597.57 1.427.855 2.188.75 1.175-.163 2.05-.938 2.433-2.154.164-.52.266-.66.544-.74.114-.032 2.07-.04 7.46-.032l7.306.01.177.083c.244.117.36.288.52.774.164.498.236.65.458.966.423.597 1.045.97 1.825 1.093.88.14 1.773-.126 2.342-.697.257-.258.41-.517.557-.95.165-.474.206-.557.405-.81a1.1 1.1 0 0 1 .416-.326l.262-.13 1.308-.003c1.145 0 1.328-.01 1.48-.068.223-.09.3-.16.4-.377l.08-.173-.013-11.95c-.008-6.57-.03-12.095-.046-12.28-.057-.592-.22-.77-.78-.842-.162-.022-2.797-.038-6.366-.04h-6.09l.21-.302c.196-.28.704-1.03 3.7-5.466.67-.992 1.258-1.89 1.303-1.988.11-.247.11-.592-.002-.803-.235-.45-.71-.686-1.105-.545zm7.364 21.9v11.02H1.846v-22.04h31.608v11.02zM29.47 34.91c-.07.236-.252.575-.384.722a.906.906 0 0 1-1.304.068c-.156-.138-.38-.523-.46-.794l-.024-.085h2.2l-.028.09zm-21.517.186c-.103.304-.283.566-.49.71-.152.107-.19.116-.497.116-.296 0-.353-.012-.514-.107-.204-.12-.373-.34-.492-.642-.132-.337-.207-.313.996-.313h1.077l-.08.236z"/><path d="M4.28 12.702c-.354.07-.51.223-.605.59-.08.307-.138 17.225-.06 17.55.064.27.22.444.473.532.19.067.753.07 13.562.07 10.97 0 13.397-.01 13.555-.05.397-.107.573-.348.635-.87.024-.204.027-3.296.007-8.732-.03-7.813-.036-8.428-.1-8.59a.72.72 0 0 0-.408-.44l-.176-.08-13.362-.006c-7.35-.003-13.435.01-13.524.026zm25.636 9.36v7.51H5.422v-15.02h24.494v7.51z"/><path d="M21.584 17.337c-.2.1-.378.298-.495.552-.17.356-.1.706.18.972.277.26 5.35 3.295 5.737 3.434a.82.82 0 0 0 .665-.045c.298-.147.48-.43.532-.823.02-.162.01-.22-.08-.385a1.345 1.345 0 0 0-.202-.288c-.214-.2-5.188-3.205-5.665-3.422a.795.795 0 0 0-.676.002zm-9.087.46c-.24.035-3.718 1.615-4.787 2.174-.412.218-.518.328-.603.624-.07.24-.06.714.016.857a.766.766 0 0 0 .818.39c.37-.06 4.958-2.193 5.18-2.41.176-.166.277-.455.28-.79.003-.298.003-.298-.15-.456-.175-.182-.494-.428-.543-.42l-.208.033zm5 5.403c-.435.133-.638.434-.7 1.04-.065.625-.076.65-.468 1.054-.51.52-.86.725-1.255.724-.53 0-1.096-.72-1.196-1.523-.05-.417-.106-.54-.363-.823-.476-.525-.824-.56-1.294-.135-.278.253-.315.375-.292.954.027.628.117.995.37 1.51a3.73 3.73 0 0 0 2.06 1.824c.283.1.355.108.866.108.477 0 .6-.012.843-.09a4.44 4.44 0 0 0 1.302-.696l.358-.274.125.086c.067.048.227.17.353.272.3.24.812.503 1.196.612.45.128 1.096.12 1.565-.022 1.006-.302 1.812-.994 2.222-1.907.22-.49.38-1.27.38-1.862 0-.192-.022-.295-.09-.424-.26-.494-1.21-.523-1.538-.046-.143.208-.176.316-.255.838-.04.258-.09.51-.11.563-.098.25-.63.773-.96.94a.873.873 0 0 1-.34.065c-.314 0-.605-.165-1.02-.582-.38-.383-.423-.475-.515-1.13-.07-.503-.146-.69-.358-.88a.97.97 0 0 0-.892-.188z"/></g></svg>
