<svg width="128" height="24" viewBox="0 0 128 24" xmlns="http://www.w3.org/2000/svg"><title>BreakersTV</title><path d="M0 18.274V16.97h1.173V5.086H0V3.78h4.433c1.586 0 3.216 1.326 3.216 3.622a3.013 3.013 0 0 1-1.546 2.804c1.63.724 2.216 1.955 2.216 3.694 0 3.02-1.65 4.345-3.62 4.345H.03l-.03.03zm3.933-8.54c1.5 0 2.173-.782 2.173-2.303 0-1.78-.89-2.343-2.65-2.343h-.848v4.65h1.326zm.674 7.244c1.303 0 2.173-.956 2.173-3.064s-1.065-2.897-2.586-2.897H2.608v5.932h1.977l.022.026zM14.175 6.96h3.846c1.89 0 3.39.892 3.39 3.086a3.36 3.36 0 0 1-2.3 3.173l2.78 4.582-1.26.76-2.898-5.128h-2.106v4.846h-1.448V6.953v.01zm3.368 5.172c1.412 0 2.347-.804 2.347-2.086a1.695 1.695 0 0 0-1.913-1.782H15.63v3.868h1.913zm10.14-5.17h7.062v1.302h-5.613v3.39h4.628v1.304h-4.628v4.02h5.606v1.304h-7.055V6.952v.01zm14.906 8.234l-1.067 3.368-1.45-.52 3.543-11.09h1.87l3.562 11.08-1.45.523-1.042-3.368h-4.02l.05.004zm2-6.52l-1.61 5.238h3.214L44.59 8.677zm11.745 3.13h.543l3.89-5.07 1.107.87L58.1 12.3l4.41 5.32-1.106.935-4.585-5.585h-.5v5.303H54.87V6.953h1.448v4.824l.016.03zM68.2 6.982h7.063v1.304h-5.606v3.39h4.628v1.304h-4.628V17h5.606v1.303H68.2V6.953v.03zm12.988 0h3.846c1.89 0 3.39.89 3.39 3.086a3.36 3.36 0 0 1-2.304 3.172l2.782 4.585-1.26.76-2.898-5.127h-2.108v4.845h-1.448V6.953v.03zm3.368 5.172c1.412 0 2.347-.804 2.347-2.086a1.695 1.695 0 0 0-1.913-1.782h-2.346v3.868h1.912zm10.69 2.564c.283 1.39.957 2.412 2.478 2.412 1.195 0 2.13-.652 2.13-1.912 0-1.39-1.174-1.74-2.282-2.173-1.652-.724-3.216-1.13-3.216-3.26 0-1.912 1.543-2.976 3.324-2.976 1.782 0 3 1.083 3.455 2.843l-1.39.413c-.26-1.108-.848-1.89-2.086-1.89-.938 0-1.85.478-1.85 1.5 0 1.02.652 1.368 1.52 1.76l2.413 1.064a2.897 2.897 0 0 1 1.564 2.65c0 2.174-1.5 3.37-3.622 3.37-2.123 0-3.434-1.35-3.78-3.37l1.34-.433zM116.412 0c-6.4 0-11.588 5.19-11.588 11.59 0 6.4 5.19 11.588 11.59 11.588 6.4 0 11.588-5.19 11.588-11.59C128 5.19 122.81 0 116.41 0zm-1.76 8.257h-3.063v10.017h-1.45V8.257h-3.13V6.953h7.65v1.304h-.01zm7.092 10.3h-.26l-4.347-11.365 1.39-.52 3.087 8.3 3.085-8.3 1.39.52-4.347 11.365z" fill="#fff" fill-rule="evenodd"/></svg>
