<svg width="128" height="30" viewBox="0 0 128 30" xmlns="http://www.w3.org/2000/svg"><title>Cavetube</title><g fill="#fff" fill-rule="evenodd"><path d="M32.04 13.72v2.508a.838.838 0 0 0 .452.668l1.23 1.04a1.66 1.66 0 0 0 1.004.446h3.564c1.355 0 1.64.687 1.64 1.265 0 .838-.55 1.265-1.64 1.265h-3.208c-1.23 0-1.772-.035-2.776-.86L30.8 18.81c-1.004-.818-1.295-1.505-1.295-2.85v-1.963c0-1.366.3-2.008 1.295-2.85L32.306 9.9c1.004-.83 1.546-.86 2.776-.86h3.208c1.09 0 1.64.428 1.64 1.266 0 .578-.285 1.265-1.64 1.265h-3.564c-.376.03-.73.19-1.004.45l-1.22 1.03a.848.848 0 0 0-.462.67zm20.114-1.126l.21 6.872c.03.404-.107.802-.376 1.104a1.114 1.114 0 0 1-.828.337 1.34 1.34 0 0 1-.944-.412 1.22 1.22 0 0 1-.286-.472l-1.08.557a2.068 2.068 0 0 1-1.36.322h-1.937a3.418 3.418 0 0 1-2.46-.773 3.087 3.087 0 0 1-1.144-2.684v-.883a2.88 2.88 0 0 1 1.07-2.445c.7-.585 1.6-.88 2.51-.824h4.09v-.21c0-1.336-.184-1.507-1.54-1.507h-2.51c-1.354 0-1.64-.688-1.64-1.266 0-.837.55-1.264 1.64-1.264h2.78c1.006 0 1.89.075 2.793 1.003.838.772.99 1.41 1.01 2.54zm-3.584 3.228h-3.012c-.412 0-1.1.08-1.1.632v1.35c0 .543.88.573 1.055.573h2.173l2.043-1.06v-.29c.022-.994-.204-1.205-1.157-1.205h-.005zm15.013-6.787c-1.285 0-1.285 1.315-1.285 1.747v1.004l-2.68 6.15-2.68-6.15v-1.004c0-.432 0-1.747-1.286-1.747-.768 0-1.24.568-1.24 1.476v1.44c.005.325.093.645.257.927l3.01 6.62v.05c.23.503.61 1.367 1.26 1.367h1.303c.648 0 1.034-.854 1.26-1.366l3.082-6.706c.156-.27.238-.58.24-.892v-1.44c.01-.907-.466-1.475-1.244-1.475zm12.173 11.867h-4.794c-.848 0-1.275 0-1.978-.608l-.883-.763a2.75 2.75 0 0 1-1.116-2.46v-3.9c0-1.126.165-1.844 1.08-2.617l.717-.61a2.952 2.952 0 0 1 2.4-.905h1.856a3.132 3.132 0 0 1 2.395.793l.82.654c1.063.844 1.15 1.783 1.15 2.832v1.62c0 1.21-.238 1.748-1.643 1.748h-6.23v.422c.03.156.107.3.22.41l.503.56c.2.214.5.3 1.163.3h4.342c1.09 0 1.64.426 1.64 1.265.016.578-.26 1.266-1.625 1.266h-.014zm-6.244-6.742h5.36v-1.05a.823.823 0 0 0-.17-.686l-.773-.668a1.23 1.23 0 0 0-.806-.19H71.42a1.41 1.41 0 0 0-.89.185l-.692.505a.683.683 0 0 0-.316.723v1.184h-.01zm18.853 2.51c-.602 0-1.123.417-1.255 1.004-.165.638-.356.698-1.17.698h-1.033a1.28 1.28 0 0 1-.894-.22c-.21-.212-.206-.634-.206-1.22V11.56h3.143c1.355 0 1.64-.688 1.64-1.265 0-.838-.55-1.265-1.64-1.265h-3.143V7.213c0-1.09-.426-1.64-1.265-1.64-.838 0-1.265.55-1.265 1.64V9.03h-.4c-1.09 0-1.642.427-1.642 1.265 0 .577.286 1.265 1.64 1.265h.402v5.41c0 1.04 0 1.944.804 2.837a3.514 3.514 0 0 0 2.804 1.095h1.034c1.06 0 2.153-.136 2.976-1.125.437-.522.7-1.168.753-1.847a1.275 1.275 0 0 0-1.265-1.26h-.014zm13.77 2.57v-8.563c0-1.09-.428-1.642-1.266-1.642-.84 0-1.268.552-1.268 1.642v5.742l-2.86 1.804a.863.863 0 0 1-.503.146h-.673a1.25 1.25 0 0 1-.963-.295 3.338 3.338 0 0 1-.176-1.19L94.2 10.67c0-.446-.05-1.636-1.24-1.636a1.18 1.18 0 0 0-.883.332 2.008 2.008 0 0 0-.378 1.445l.215 6.528c.034 1.04.07 1.932 1.003 2.74.56.507 1.285.79 2.04.8h1.506c.686-.05 1.342-.3 1.887-.72l1.26-.822c.03 1.003.458 1.536 1.26 1.536.326.018.643-.1.88-.32.292-.37.43-.84.382-1.31zm12.8-2.244a2.91 2.91 0 0 1-1.186 2.51l-.7.593a2.98 2.98 0 0 1-1.74.775h-2.09c-.944 0-1.577-.583-2.134-1.1l-.075-.07a1.205 1.205 0 0 1-1.234 1.17c-.838 0-1.265-.563-1.265-1.662V6.503c0-1.09.428-1.64 1.266-1.64.838 0 1.265.55 1.265 1.64v3.657c.644-.643 1.105-1.105 2.1-1.105h2.234c.626.056 1.212.33 1.657.773l.698.593a2.91 2.91 0 0 1 1.183 2.51V17l.02-.004zm-2.702-4.608l-.928-.717a.502.502 0 0 0-.332-.113h-1.41c-.25.02-.487.12-.673.29l-1.31 1.146a1.165 1.165 0 0 0-.502 1.005v1.772c-.075.45.122.904.502 1.16l1.26 1.077c.147.147.316.27.502.362h1.536a.653.653 0 0 0 .472-.13l.888-.746c.136-.273.192-.58.16-.883v-3.583a.9.9 0 0 0-.165-.628v-.01zm7.41 4.287v.422c.03.156.106.3.22.41l.502.56c.2.214.502.3 1.165.3h4.342c1.09 0 1.64.426 1.64 1.265 0 .577-.285 1.265-1.64 1.265h-4.81c-.847 0-1.274 0-1.977-.608l-.863-.76a2.75 2.75 0 0 1-1.12-2.465v-3.9c0-1.125.166-1.843 1.08-2.616l.717-.61a2.952 2.952 0 0 1 2.4-.906h1.854a3.132 3.132 0 0 1 2.394.793l.823.653c1.065.845 1.15 1.784 1.15 2.833v1.62c0 1.21-.236 1.748-1.64 1.748h-6.24v-.003zm0-2.51h5.36v-1.05a.818.818 0 0 0-.17-.686l-.773-.67a1.23 1.23 0 0 0-.81-.19h-1.705a1.41 1.41 0 0 0-.894.184l-.684.502a.683.683 0 0 0-.317.723v1.184h-.006zm-42.34 9.87a1.004 1.004 0 0 0-.89-.503 1.305 1.305 0 0 0 0 2.605c.366.007.706-.185.89-.502v.457h.41v-3.44h-.41v1.382zm-.844 1.756a.96.96 0 0 1 0-1.9.96.96 0 0 1 0 1.903zm3.51-2.25a1.305 1.305 0 0 0-.035 2.604 1.124 1.124 0 0 0 1.155-.893h-.43a.678.678 0 0 1-.724.537.798.798 0 0 1-.798-.844h1.967a1.753 1.753 0 0 0 0-.205 1.124 1.124 0 0 0-1.115-1.2h-.02zm-.828 1.11a.768.768 0 0 1 .793-.755.738.738 0 0 1 .758.753h-1.55zm4.75.74a.803.803 0 0 1-.93.758.93.93 0 0 1-1.01-.883h.418a.547.547 0 0 0 .623.532.422.422 0 0 0 .502-.357c0-.745-1.47-.233-1.47-1.196a.763.763 0 0 1 .873-.708.888.888 0 0 1 .953.883h-.405a.537.537 0 0 0-.557-.534.376.376 0 0 0-.453.337c.01.612 1.476.145 1.476 1.16l-.02.004zm1.474-2.424a.27.27 0 0 1-.276.28.28.28 0 0 1 0-.556.27.27 0 0 1 .298.27l-.022.004zm-.5.622h.41v2.51h-.41v-2.51zm3.512.457a1.004 1.004 0 0 0-.894-.502 1.295 1.295 0 0 0 0 2.585 1 1 0 0 0 .893-.502v.402a.743.743 0 0 1-.8.798.788.788 0 0 1-.787-.502h-.37c.14.54.653.896 1.208.843a1.12 1.12 0 0 0 1.206-1.154v-2.43h-.407v.457l-.05.003zm-.794 1.722a.944.944 0 0 1 0-1.878.944.944 0 0 1 0 1.877zm4.578-1.17v1.506h-.412v-1.44a.678.678 0 1 0-1.34 0v1.44H90v-2.51h.41v.392a.873.873 0 0 1 .793-.437.944.944 0 0 1 .96 1.044v.007zm2.264-1.054a1.305 1.305 0 0 0-.036 2.605 1.124 1.124 0 0 0 1.154-.893h-.43a.678.678 0 0 1-.724.537.798.798 0 0 1-.798-.842h1.967a1.753 1.753 0 0 0 0-.205 1.124 1.124 0 0 0-1.14-1.205l.006.005zm-.83 1.11a.768.768 0 0 1 .794-.754.738.738 0 0 1 .758.752H93.6zm4.945-.613a1.004 1.004 0 0 0-.89-.504 1.305 1.305 0 0 0 0 2.605c.368.01.708-.183.89-.5v.457h.413v-3.444h-.412v1.386zm-.842 1.755a.96.96 0 0 1 0-1.903.96.96 0 0 1 .015 1.898l-.015.006zm5.074-2.254a1.004 1.004 0 0 0-.888.504v-1.39h-.412V26.1h.412v-.452a1 1 0 0 0 .888.502 1.308 1.308 0 0 0-.005-2.615l.005.005zm-.04 2.25a.96.96 0 0 1 0-1.902.96.96 0 0 1 0 1.903zm3.926-2.21h.41l-1.454 3.516h-.422l.457-1.11-1.064-2.424h.44l.834 1.92.8-1.9zm4.547.454a1.004 1.004 0 0 0-.89-.502 1.305 1.305 0 0 0 0 2.606c.366.007.707-.185.89-.502v.457h.41v-3.44h-.41v1.383zm-.844 1.757a.96.96 0 0 1 0-1.9.96.96 0 0 1-.014 1.902h.016zm3.424-2.252a.266.266 0 0 1 .2.065v.432a.38.38 0 0 0-.246-.07c-.306 0-.557.175-.557.737V26.1h-.41v-2.51h.41v.377a.637.637 0 0 1 .593-.427h.01zm3.04.502a1.004 1.004 0 0 0-.887-.504 1.305 1.305 0 0 0 0 2.605 1 1 0 0 0 .887-.5v.457h.413v-2.51h-.412v.452zm-.842 1.755a.96.96 0 0 1 0-1.903.96.96 0 0 1-.015 1.898l.014.006zm5.296-2.21h.41l-.837 2.51h-.416l-.562-1.927-.577 1.932h-.42l-.82-2.51h.433l.612 2.063.552-2.063h.392l.596 2.063.638-2.068zm2.31-.044a1.305 1.305 0 0 0-.036 2.607 1.124 1.124 0 0 0 1.15-.893h-.428a.678.678 0 0 1-.722.537.798.798 0 0 1-.798-.842h1.967a1.753 1.753 0 0 0 0-.205 1.124 1.124 0 0 0-1.15-1.205l.017.005zm-.83 1.11a.768.768 0 0 1 .794-.752.738.738 0 0 1 .758.753h-1.55zm3.986-1.11a.266.266 0 0 1 .2.067v.432a.38.38 0 0 0-.245-.07c-.306 0-.557.173-.557.736V26.1h-.412v-2.51h.413v.377a.637.637 0 0 1 .587-.433l.016.005zM14.556 0c-1.1.002-2.2.128-3.272.376.453 1.462.655 2.99.597 4.518 0 5.773-1.42 6.987-1.42 11.314a9.412 9.412 0 0 1 4.52-7.99 13.12 13.12 0 0 1 4.68-1.758 5.557 5.557 0 0 0-3.01-.838 6.962 6.962 0 0 1 3.176-1.13 8.84 8.84 0 0 0-2.47-1.796 17.62 17.62 0 0 1 7.5 1.596A14.512 14.512 0 0 0 14.556 0z"/><path d="M19.41 24.973c-5.732 0-8.95-4.317-8.95-8.785a9.412 9.412 0 0 1 4.52-7.99 13.12 13.12 0 0 1 4.68-1.758 5.557 5.557 0 0 0-3.012-.838 6.962 6.962 0 0 1 3.177-1.13 8.84 8.84 0 0 0-2.47-1.797 17.62 17.62 0 0 1 7.5 1.597 14.557 14.557 0 1 0 2.083 17.94 11.43 11.43 0 0 1-7.53 2.76z"/><path d="M14.557 0c-1.102.002-2.2.128-3.273.376.453 1.462.655 2.99.597 4.518 0 5.773-1.42 6.987-1.42 11.314a9.412 9.412 0 0 1 4.52-7.99 13.12 13.12 0 0 1 4.68-1.758 5.557 5.557 0 0 0-3.01-.838 6.962 6.962 0 0 1 3.176-1.13 8.84 8.84 0 0 0-2.47-1.796 17.62 17.62 0 0 1 7.5 1.596A14.512 14.512 0 0 0 14.556 0z"/><path d="M16.65 5.602a11.128 11.128 0 0 0-4.824 1.074c-.256 4.277-1.37 5.672-1.37 9.507a9.412 9.412 0 0 1 4.517-7.99 13.12 13.12 0 0 1 4.684-1.758 5.316 5.316 0 0 0-2.475-.808c-.166-.01-.34-.025-.532-.025z"/></g></svg>
