<svg width="144" height="27" viewBox="0 0 144 27" xmlns="http://www.w3.org/2000/svg"><title>cybergame_logo</title><path d="M36.98 10.2V9.138c0-1.881-1.63-2.802-3.855-2.802-4.152 0-6.954 2.982-6.954 7.204 0 4.103 3.1 6.824 6.716 6.824 1.887 0 4.053-.8 4.053-2.681v-1.02h-.1c-.735.78-2.245 1.32-3.596 1.32-2.563 0-4.33-1.62-4.33-4.843 0-2.661 1.807-4.422 4.231-4.422 1.172 0 2.88.36 3.735 1.48h.1zm7.191 7.428c.454-1.06 2.16-5.555 2.16-6.596 0-.805-.364-1.152-1.144-1.152h-1.052c-.218 2.01-1.107 4.99-1.905 6.835-.889-1.736-1.615-3.783-1.96-5.683-.126-.695-.743-1.152-1.414-1.152h-1.288c.326 2.321 2.177 7.218 3.465 9.174-.526 1.389-.835 1.754-1.724 1.809l-1.379.091v.475c0 .914.799 1.517 1.706 1.517 1.76 0 2.721-1.005 4.535-5.318zm12.865-2.698c0-2.905-1.905-4.952-4.39-4.952-1.325 0-2.16.786-2.649 1.499v-2.87c0-1.15-.653-1.699-1.597-1.699h-.834v8.351c0 2.96 2.104 5.026 4.608 5.026 2.975 0 4.862-2.394 4.862-5.355zm-2.522.42c0 1.59-.87 2.76-2.086 2.76-1.451 0-2.413-.932-2.413-3.198 0-1.535.925-2.76 2.16-2.76 1.487 0 2.34.805 2.34 3.199zm8.812 3.03c1.016 0 2.213-.2 2.993-.931h.091v.767c0 1.26-.853 2.23-3.538 2.23-2.43 0-4.807-1.938-4.807-4.953 0-3.29 1.995-5.354 4.79-5.354 2.031 0 3.918 1.462 3.918 3.82 0 1.808-1.36 2.393-4.59 2.393h-.675c0-.305.484-1.739 2.293-1.753.326-.003.686-.239.686-.933 0-.987-.726-1.48-1.85-1.48-1.18 0-2.16 1.233-2.16 2.996 0 2.917 1.942 3.198 2.849 3.198zm10.515-5.598v-.877c0-.75-.526-1.608-2.032-1.608-2.576 0-3.61 1.882-3.61 3.855v4.532c0 1.024.69 1.572 1.778 1.572h.671V14.59c0-1.499.599-2.102 1.687-2.102.635 0 1.053.147 1.415.293h.091zm13.426 4.126v-2.213c0-.604-.639-1.268-1.398-1.268h-1.398s.2.926.2 2.012v1.107c0 .804-.32 1.307-1.638 1.307-2.457 0-4.335-1.368-4.335-4.848 0-2.556 1.818-4.427 4.355-4.427 1.438 0 2.976.382 3.895 1.167h.1V8.8c0-1.288-1.119-2.717-3.676-2.717-4.674 0-7.49 3.24-7.49 7.304 0 4.305 3.196 6.961 6.831 6.961 3.416 0 4.554-1.368 4.554-3.44zm9.112-.015v-2.266c0-3.399-1.96-4.422-4.137-4.422-2.576 0-3.555 1.316-3.555 2.412v.786h.09c.363-.457 1.343-1.133 3.103-1.133 1.45 0 2.104.42 2.104 1.81v.127h-.853c-3.592 0-4.862 1.334-4.862 3.088 0 1.81 1.597 3.125 3.919 3.125h.49c2.177 0 3.7-1.443 3.7-3.527zm-2.377.019c0 1.005-.508 1.516-1.56 1.516-1.07 0-1.687-.456-1.687-1.224 0-.804.526-1.243 2.376-1.243h.871v.95zm18.251 3.344v-5.92c0-2.797-1.814-4.167-4.063-4.167-1.18 0-2.25.62-2.812 1.535-.708-.95-1.706-1.535-2.976-1.535-2.957 0-4.354 1.79-4.354 4.477v3.819c0 1.133.762 1.79 1.76 1.79h.653v-5.81c0-1.353.708-2.102 1.65-2.102 1.071 0 1.815.695 1.815 2.321v3.801c0 1.17.708 1.79 1.778 1.79h.653V14.39c0-1.352.671-2.047 1.651-2.047 1.07 0 1.796.695 1.796 2.321v3.801c0 1.17.526 1.79 1.85 1.79h.6zm6.7-1.876c1.016 0 2.214-.2 2.994-.931h.09v.767c0 1.26-.852 2.23-3.537 2.23-2.431 0-4.808-1.938-4.808-4.953 0-3.29 1.996-5.354 4.79-5.354 2.032 0 3.919 1.462 3.919 3.82 0 1.808-1.361 2.393-4.59 2.393h-.676c0-.305.485-1.739 2.293-1.753.327-.003.687-.239.687-.933 0-.987-.726-1.48-1.851-1.48-1.18 0-2.16 1.233-2.16 2.996 0 2.917 1.942 3.198 2.85 3.198zm7.965.304c0-.859-.707-1.571-1.56-1.571-.852 0-1.56.712-1.56 1.571 0 .86.708 1.572 1.56 1.572.853 0 1.56-.713 1.56-1.572zm2.023-7.704v5.921c0 2.303 1.197 3.655 3.665 3.655 1.415 0 2.14-.64 2.14-1.645v-.877h-.09c-.381.238-.98.347-1.76.347-.98 0-1.542-.493-1.542-1.772v-3.856h1.941c.998 0 1.451-.658 1.451-1.17v-1.005h-3.392v-2.23h-.563c-.38 0-.816.293-1.143.677-.526.621-.707.987-.707 1.955zm15.059.45c0-.804-.308-1.169-1.143-1.169h-1.034c-.363 2.467-1.216 5.08-2.14 6.926-1.035-2.029-1.525-3.93-1.87-5.756a1.472 1.472 0 0 0-1.45-1.17h-1.307c.218 2.668 1.887 6.962 3.211 8.99.49.732.87.988 1.597.988h.471c1.089-1.499 2.177-3.875 2.83-5.684.6-1.644.835-2.832.835-3.124zM20.095 13.519c0 2.168-3.851 7.707-7.32 10.482-2.524 2.019-4.566 3-6.962 3C2.502 27 0 24.892 0 21.036c0-2.873 1.41-4.24 4.055-6.759l1.83 1.843c-1.547 1.559-3.409 2.832-3.409 5.025 0 2.278 2.031 3.47 3.804 3.47 2.148 0 4.844-1.74 4.844-4.446 0-2.445-2.363-4.974-4.127-6.65a64.135 64.135 0 0 0-3.588-3.146C1.714 9.011.179 8.01.179 5.53.18 3.113 2.2 0 5.777 0 7.104 0 9.57.44 12.74 3.072c3.34 2.774 7.356 7.81 7.356 10.446z" fill="#fff" fill-rule="evenodd"/></svg>
