<?xml version="1.0" encoding="UTF-8"?>
<svg width="417px" height="144px" viewBox="0 0 417 144" version="1.1" xmlns="http://www.w3.org/2000/svg" xmlns:xlink="http://www.w3.org/1999/xlink">
    <!-- Generator: Sketch 47.1 (45422) - http://www.bohemiancoding.com/sketch -->
    <title>Combined Shape</title>
    <desc>Created with Sketch.</desc>
    <defs></defs>
    <g id="Page-1" stroke="none" stroke-width="1" fill="none" fill-rule="evenodd">
        <g id="Facebook-Live-logo" fill="#FFFFFF">
            <g id="Group-5">
                <path d="M7.95,0 L136.05,0 C140.441,0 144,3.559 144,7.95 L144,136.05 C144,140.441 140.441,144 136.05,144 L7.95,144 C3.559,144 0,140.441 0,136.05 L0,7.95 C0,3.559 3.559,0 7.95,0 Z M99.36,144 L99.36,88.24 L118.08,88.24 L120.85,66.5 L99.36,66.5 L99.36,52.63 C99.36,46.34 101.11,42.05 110.13,42.05 L121.64,42.05 L121.64,22.61 C116.07,22.019 110.471,21.731 104.87,21.75 C88.28,21.75 76.87,31.88 76.87,50.48 L76.87,66.48 L58.15,66.48 L58.15,88.21 L76.92,88.21 L76.92,144 L99.36,144 Z M167.04,0 L408.74,0 C413.131,0 416.69,3.559 416.69,7.95 L416.69,136.05 C416.69,140.441 413.131,144 408.74,144 L167.04,144 C162.649,144 159.09,140.441 159.09,136.05 L159.09,7.95 C159.09,3.559 162.649,0 167.04,0 Z M238.29,92.94 L210.29,92.94 L210.29,41.51 L199.39,41.51 L199.39,102.51 L238.27,102.51 L238.27,92.96 L238.29,92.94 Z M250.04,102.49 L260.94,102.49 L260.94,41.49 L250.04,41.49 L250.04,102.49 Z M305.31,102.49 L326.4,41.49 L314.77,41.49 L299.56,89.75 L298.85,89.75 L283.51,41.49 L271.51,41.49 L292.81,102.49 L305.36,102.49 L305.31,102.49 Z M376.39,93.07 L347.85,93.07 L347.85,76 L374.85,76 L374.85,67.13 L347.85,67.13 L347.85,50.93 L376.42,50.93 L376.42,41.51 L336.92,41.51 L336.92,102.51 L376.39,102.51 L376.39,93.07 Z" id="Combined-Shape"></path>
            </g>
        </g>
    </g>
</svg>