<svg xmlns="http://www.w3.org/2000/svg" width="124" height="24" viewBox="0 0 124 24">
  <g fill="#FFFFFF" fill-rule="evenodd">
    <path d="M26.640625,4.64765625 L40.203125,4.64765625 L40.203125,8.46210938 L32.1503906,8.46210938 L32.1503906,11.5621094 L39.0285156,11.5621094 L39.0285156,15.1464844 L32.1503906,15.1464844 L32.1503906,22.4 L26.640625,22.4 L26.640625,4.64765625 Z M53.8565625,15.1464844 L58.6639844,16.5996094 C58.3410661,17.9477932 57.8324774,19.0739538 57.1382031,19.978125 C56.4439288,20.8822962 55.5821536,21.5644508 54.5528516,22.0246094 C53.5235496,22.4847679 52.2137319,22.7148438 50.6233594,22.7148438 C48.6939227,22.7148438 47.1177014,22.4343127 45.8946485,21.8732422 C44.6715955,21.3121717 43.6160722,20.3252675 42.7280469,18.9125 C41.8400216,17.4997325 41.3960156,15.6914173 41.3960156,13.4875 C41.3960156,10.5489436 42.1770625,8.29056779 43.7391797,6.71230469 C45.3012969,5.13404159 47.5112357,4.34492187 50.3690625,4.34492187 C52.6052716,4.34492187 54.3631316,4.79700069 55.6426953,5.70117188 C56.922259,6.60534306 57.8728355,7.99387084 58.4944531,9.86679687 L53.6507031,10.9445313 C53.481171,10.4036431 53.3035687,10.0080742 53.1178906,9.7578125 C52.8111183,9.33801873 52.4357314,9.0151053 51.9917188,8.7890625 C51.5477061,8.5630197 51.0512267,8.45 50.5022656,8.45 C49.2590303,8.45 48.3064356,8.95051583 47.6444531,9.9515625 C47.1439298,10.6942745 46.8936719,11.8607993 46.8936719,13.4511719 C46.8936719,15.4209734 47.1923668,16.7711552 47.7897656,17.5017578 C48.3871645,18.2323604 49.2267394,18.5976562 50.3085156,18.5976562 C51.3580001,18.5976562 52.1511562,18.3029977 52.6880078,17.7136719 C53.2248595,17.124346 53.6143738,16.2686254 53.8565625,15.1464844 Z M73.8432032,22.4 L59.0455469,22.4 C59.215079,20.9387948 59.7297223,19.5643945 60.5894922,18.2767578 C61.4492621,16.9891212 63.0618111,15.4694098 65.4271875,13.7175781 C66.8722468,12.6438748 67.7965866,11.8285184 68.2002344,11.2714844 C68.6038823,10.7144503 68.8057032,10.1856796 68.8057032,9.68515625 C68.8057032,9.14426813 68.6059005,8.68209827 68.2062891,8.29863281 C67.8066777,7.91516735 67.3041437,7.7234375 66.6986719,7.7234375 C66.0689813,7.7234375 65.554338,7.92122198 65.1547266,8.31679688 C64.7551152,8.71237177 64.4866934,9.41067208 64.3494532,10.4117188 L59.4088282,10.0121094 C59.6025791,8.62356077 59.9577839,7.53978254 60.4744532,6.76074219 C60.9911224,5.98170183 61.7196959,5.38431197 62.6601954,4.96855469 C63.6006948,4.5527974 64.9024396,4.34492187 66.5654688,4.34492187 C68.3011545,4.34492187 69.6513364,4.54270636 70.6160547,4.93828125 C71.5807731,5.33385614 72.3396197,5.94133705 72.8926172,6.76074219 C73.4456148,7.58014733 73.7221094,8.49843241 73.7221094,9.515625 C73.7221094,10.5974012 73.4052506,11.6307242 72.7715235,12.615625 C72.1377963,13.6005258 70.985399,14.6822858 69.3142969,15.8609375 C68.3213232,16.5471388 67.6573324,17.0274726 67.3223047,17.3019531 C66.987277,17.5764337 66.5937263,17.9356749 66.1416407,18.3796875 L73.8432032,18.3796875 L73.8432032,22.4 Z M78.7584,4.72 L83.4368,4.72 L83.4368,18.4832 L90.128,18.4832 L90.128,22.4 L78.7584,22.4 L78.7584,4.72 Z M94.0128,7.1136 C93.2511962,7.1136 92.6256025,6.89600218 92.136,6.4608 C91.6463976,6.02559782 91.4016,5.46347011 91.4016,4.7744 C91.4016,4.08532989 91.6463976,3.52320218 92.136,3.088 C92.6256025,2.65279782 93.2511962,2.4352 94.0128,2.4352 C94.7744038,2.4352 95.3999976,2.65279782 95.8896,3.088 C96.3792025,3.52320218 96.624,4.08532989 96.624,4.7744 C96.624,5.46347011 96.3792025,6.02559782 95.8896,6.4608 C95.3999976,6.89600218 94.7744038,7.1136 94.0128,7.1136 Z M91.6736,8.8 L96.352,8.8 L96.352,22.4 L91.6736,22.4 L91.6736,8.8 Z M97.136,8.8 L101.8144,8.8 L103.2832,14.7296 C103.609602,16.0896068 103.935998,17.5039927 104.2624,18.9728 L104.3712,18.9728 C104.697602,17.5039927 105.023998,16.0896068 105.3504,14.7296 L106.8192,8.8 L111.28,8.8 L106.9824,22.4 L101.5968,22.4 L97.136,8.8 Z M111.3568,15.6 C111.3568,14.4938611 111.542665,13.5010711 111.9144,12.6216 C112.286135,11.7421289 112.77573,10.9941364 113.3832,10.3776 C113.99067,9.76106358 114.684263,9.28960163 115.464,8.9632 C116.243737,8.63679837 117.050663,8.4736 117.8848,8.4736 C118.882138,8.4736 119.75253,8.64586494 120.496,8.9904 C121.23947,9.33493506 121.855998,9.80639701 122.3456,10.4048 C122.835203,11.003203 123.202399,11.7013293 123.4472,12.4992 C123.692001,13.2970707 123.8144,14.1493288 123.8144,15.056 C123.8144,15.4730688 123.791734,15.8447984 123.7464,16.1712 C123.701066,16.4976016 123.660267,16.7423992 123.624,16.9056 L115.872,16.9056 C116.089601,17.7760044 116.479464,18.3743984 117.0416,18.7008 C117.603736,19.0272016 118.265596,19.1904 119.0272,19.1904 C119.498669,19.1904 119.956531,19.1224007 120.4008,18.9864 C120.845069,18.8503993 121.311998,18.6464014 121.8016,18.3744 L123.3248,21.1488 C122.58133,21.6746693 121.760805,22.0690654 120.8632,22.332 C119.965596,22.5949346 119.136004,22.7264 118.3744,22.7264 C117.377062,22.7264 116.452271,22.5677349 115.6,22.2504 C114.747729,21.9330651 114.008803,21.4706697 113.3832,20.8632 C112.757597,20.2557303 112.263469,19.5077378 111.9008,18.6192 C111.538132,17.7306622 111.3568,16.7242723 111.3568,15.6 Z M119.8432,14.0768 C119.8432,13.4965304 119.711735,13.0069353 119.4488,12.608 C119.185865,12.2090647 118.700804,12.0096 117.9936,12.0096 C117.467731,12.0096 117.009869,12.1637318 116.62,12.472 C116.230131,12.7802682 115.962667,13.3151962 115.8176,14.0768 L119.8432,14.0768 Z"/>
    <path fill-rule="nonzero" d="M1.10933774,0 C4.06329824,2.30841795 7.00519254,4.63267281 9.95839891,6.94259904 C11.6951799,5.68318774 13.4266819,4.4169892 15.1649711,3.15908618 C15.5405321,3.5316306 15.9115682,3.90719157 16.2871292,4.27898185 C14.1793121,5.80988301 12.0684784,7.33852175 9.95915304,8.8671605 C7.96219429,7.35360452 5.97428521,5.82798234 3.98109715,4.30990153 C4.55876724,6.40263587 5.13342078,8.49687849 5.70882845,10.5911211 C4.60024486,11.7080002 3.4826116,12.8150755 2.374028,13.9312005 C2.21490478,14.0827824 2.12667057,14.3278774 2.24205376,14.5314948 C2.60479438,15.2147443 2.99920882,15.8814027 3.38457359,16.5518318 C3.70055762,17.1370433 4.00221302,16.9108017 4.52935584,16.6883309 C6.23974196,15.9568165 7.95540705,15.2366143 9.66654731,14.5081165 C8.72915315,17.1732419 7.80457935,19.8444005 6.87171002,22.5117884 C10.0504038,22.5087718 13.2290976,22.5117884 16.4070372,22.5102801 C16.4085455,21.9507093 16.4070372,21.3918927 16.4077914,20.832322 C18.3813718,20.832322 20.3541981,20.832322 22.3277786,20.832322 C22.3277786,21.3979258 22.3277786,21.9635297 22.3277786,22.5291336 C21.0645966,22.5298877 19.8014146,22.5283794 18.5382326,22.5298877 C18.5374785,23.0193236 18.5382326,23.5095136 18.5382326,23.9989495 C13.9032974,23.9997037 9.26836218,24.0012119 4.63342695,23.9981954 C5.45242136,21.7968651 6.27669474,19.5977972 7.09418088,17.3957128 C5.62662736,17.9711205 4.16058211,18.5495447 2.69227445,19.1234441 C1.79484963,17.4364363 0.901949647,15.7464119 0,14.0609124 C1.3672531,12.6906427 2.73752276,11.3241437 4.10553,9.95462821 C3.10931304,6.63566467 2.09876745,3.32122596 1.10933774,0 Z M12.9364918,7.74500241 C14.2049528,6.79403376 15.4734138,5.84155683 16.7426289,4.89058818 C17.1166816,5.36946613 17.4914884,5.84834408 17.8610163,6.33023858 C16.4915007,7.23520478 15.1129356,8.12735063 13.7411576,9.02930027 C13.4704219,8.60245788 13.2057193,8.17259894 12.9364918,7.74500241 Z M14.2011821,9.64316901 C15.5699435,8.7359404 16.9470004,7.84002386 18.3240573,6.94486146 C18.6460744,7.47577496 18.9635667,8.00970502 19.2833215,8.5421268 C17.8037017,9.38751606 16.3233279,10.2329053 14.8437081,11.0790487 C14.6272704,10.601679 14.4198823,10.1197845 14.2011821,9.64316901 Z M15.1506425,11.6899009 C16.6242291,10.8369703 18.1068654,9.99912239 19.5842227,9.15147071 C19.8557126,9.73517391 20.1166445,10.3234019 20.3866261,10.9071051 C18.8021811,11.5994043 17.2162278,12.2856703 15.6287663,12.9696739 C15.4711513,12.5420774 15.3090116,12.1167433 15.1506425,11.6899009 Z M7.42600182,10.231397 C7.94183255,9.99535169 8.6107534,10.3226478 8.72990729,10.879202 C8.89129293,11.4395269 8.43503913,12.0616912 7.85209007,12.0684784 C7.34757142,12.1129726 6.86492277,11.6883926 6.84757759,11.1823657 C6.80836239,10.7834264 7.05571982,10.3822247 7.42600182,10.231397 Z M15.7826105,13.579772 C17.4190911,12.8912435 19.0555716,12.2049775 20.6935605,11.5202197 C20.8504213,12.1589751 21.0133152,12.7962221 21.170176,13.4349774 C19.4831682,13.917626 17.7916355,14.3844378 16.1038736,14.8640699 C15.9960317,14.4357192 15.8889441,14.0081227 15.7826105,13.579772 Z M16.2539471,15.4711513 C17.9462339,15.0005689 19.6339959,14.5126413 21.3285451,14.0503544 C21.4288455,14.6370742 21.5434746,15.2207774 21.6430208,15.8082513 C19.8979443,16.117448 18.1558844,16.4409735 16.4115621,16.7554492 C16.3670679,16.3263444 16.3097534,15.8987479 16.2539471,15.4711513 Z M16.4160869,17.3625307 C18.2101824,17.048055 20.0035237,16.7298085 21.7968651,16.4145786 C21.8526713,16.9485087 21.9099859,17.4824387 21.9552342,18.0171229 C20.1611387,18.1649341 18.3685515,18.3376318 16.5737018,18.4846888 C16.5224204,18.1106361 16.46586,17.7373375 16.4160869,17.3625307 Z M16.4077914,19.1558721 C18.2757924,19.0163564 20.1437935,18.8549708 22.0133028,18.7433583 C22.0781588,19.3066998 22.1505561,19.8692871 22.2229533,20.4326285 C20.2848174,20.4416782 18.3466815,20.4341368 16.4077914,20.4363992 C16.4070372,20.0095568 16.4077914,19.5827145 16.4077914,19.1558721 Z"/>
  </g>
</svg>
