<svg width="72" height="31" viewBox="0 0 72 31" xmlns="http://www.w3.org/2000/svg"><title>GG</title><path d="M52.917 26.06c0 2.273 1.905 4.086 4.24 4.086 2.336 0 4.24-1.844 4.24-4.087 0-2.277-1.904-4.09-4.24-4.09-2.335 0-4.24 1.844-4.24 4.087zm15.365-3.043c-2.06 0-3.72 1.598-3.72 3.564 0 1.97 1.66 3.568 3.72 3.568 2.06 0 3.718-1.598 3.718-3.565-.03-1.965-1.69-3.563-3.718-3.563zm-34.88-2.612s4.55-.03 7.346 0c-.707.89-2.49 3.103-6.884 3.103-4.67 0-8.91-3.564-8.91-8.42 0-5.162 4.21-8.512 9.002-8.512 4.794 0 7.16 3.165 7.714 4.272 1.505-.03 2.858 0 6.607 0C48.277 7.128 42.5 0 33.864 0 25.29 0 18.16 6.33 18.16 14.843c0 9.864 8.974 15.334 15.182 15.334 4.087 0 8.02-1.352 10.17-3.38v3.38h5.133v-14.75H33.403v4.978zm-25.504 0h3.318v1.413c0 1.567-1.26 2.827-3.134 2.827-1.2 0-2.95-1.106-2.95-3.01v-9.927c0-1.782 1.23-3.01 2.98-3.01 1.875 0 3.074 1.197 3.074 2.826v.706h4.578V9.74c0-2.15-2.704-6.206-7.713-6.206C3.66 3.534 0 6.76 0 11v10.972c0 5.44 4.456 7.836 8.48 7.836 4.242 0 7.684-3.75 7.684-6.576v-6.914H7.898v4.087zm62.965.522l.553-18.284h-7.344l1.106 18.284h5.685zm-11-1.045L60.967.184H53.07l.922 19.698h5.87z" fill="#fff" fill-rule="evenodd"/></svg>
