<svg width="128" height="12" viewBox="0 0 128 12" xmlns="http://www.w3.org/2000/svg"><title>iNSTAGIB</title><path d="M28.044 2.048v3.345h11.99c.297 0 .58.126.78.344.21.21.326.495.326.79a.314.314 0 0 0 0 .176v3.764a.314.314 0 0 0 0 .128 1.16 1.16 0 0 1-.28.774 1.03 1.03 0 0 1-.825.36H27.677a1.06 1.06 0 0 1-.768-.34 1.094 1.094 0 0 1-.34-.797.35.35 0 0 1 .35-.35h12.76V6.85H27.676a1.06 1.06 0 0 1-.768-.337 1.11 1.11 0 0 1-.34-.797.314.314 0 0 0 0-.128v-3.74a.35.35 0 0 0 0-.14 1.09 1.09 0 0 1 .337-.78c.198-.213.476-.335.767-.337h12.34c.297 0 .58.127.78.345.21.206.327.487.326.78a.35.35 0 0 1-.35.35H28.04v-.012zM60.177.582H47.825a1.06 1.06 0 0 0-.768.337 1.094 1.094 0 0 0-.337.78.35.35 0 0 0 .35.346h6.166v3.537c.01.043.01.086 0 .128v4.726c.01.042.01.086 0 .128-.002.3.12.59.338.797.193.21.465.333.75.338a.35.35 0 0 0 .35-.35v-.785a.314.314 0 0 1 0-.128V5.713a.314.314 0 0 1 0-.128V2.048h6.242a.35.35 0 0 0 .35-.35c0-.292-.117-.573-.326-.78a1.065 1.065 0 0 0-.78-.336h.017zM1.105 5.392H.35a.35.35 0 0 0-.35.35v4.725c.01.042.01.086 0 .128-.002.3.12.59.337.797.2.213.477.335.768.337a.35.35 0 0 0 .35-.35v-.787a.314.314 0 0 1 0-.128V5.743a.35.35 0 0 0-.35-.35zm0-4.78a1.06 1.06 0 0 0-.768.336 1.094 1.094 0 0 0-.337.78.35.35 0 0 0 .35.35h.755a.35.35 0 0 0 .35-.35V.954a.35.35 0 0 0-.35-.372v.03zM20.98 1.727a1.088 1.088 0 0 0-.33-.774 1.065 1.065 0 0 0-.78-.343H7.534a1.06 1.06 0 0 0-.768.338c-.21.203-.33.482-.332.774a.35.35 0 0 1 0 .14V5.61c.01.04.01.085 0 .127v4.724c.01.045.01.09 0 .13-.002.3.12.59.337.798.2.214.48.336.77.338a.35.35 0 0 0 .35-.35v-.785a.314.314 0 0 1 0-.13V5.74a.314.314 0 0 1 0-.128V2.07h11.636v3.54c.01.04.01.085 0 .127v4.724c.01.045.01.09 0 .13v.787c0 .192.156.35.35.35a1.06 1.06 0 0 0 .767-.34c.217-.207.34-.495.337-.796a.314.314 0 0 1 0-.13V5.74a.314.314 0 0 1 0-.128V1.843a.35.35 0 0 1 0-.145v.028zm60.22.07a.35.35 0 0 1 0 .07v3.747a.314.314 0 0 0 0 .128v4.724a.314.314 0 0 0 0 .128c0 .3-.122.59-.34.797a1.06 1.06 0 0 1-.767.34.35.35 0 0 1-.35-.35v-.786a.314.314 0 0 0 0-.128v-3.62H68.11v3.585a.314.314 0 0 0 0 .13v.784a.35.35 0 0 1-.35.35 1.06 1.06 0 0 1-.767-.338 1.094 1.094 0 0 1-.337-.797.314.314 0 0 0 0-.13V5.71a.314.314 0 0 0 0-.128V1.844a.35.35 0 0 0 0-.14 1.1 1.1 0 0 1 .338-.78c.2-.212.477-.334.77-.336H80.1c.29.002.568.124.767.337.213.204.335.485.337.78a.35.35 0 0 1-.005.064v.026zm-1.444.28H68.12v3.315h11.636V2.077zM108.05.582a1.06 1.06 0 0 0-.77.337 1.094 1.094 0 0 0-.336.78.35.35 0 0 1 0 .14v3.743c.01.043.01.086 0 .128v4.726c.01.042.01.086 0 .128-.002.3.12.59.337.797.2.214.48.336.77.338a.35.35 0 0 0 .35-.35v-.785a.314.314 0 0 1 0-.128V5.713a.314.314 0 0 1 0-.128v-3.74a.35.35 0 0 1 0-.14V.93a.35.35 0 0 0-.35-.348zM128 6.5a.35.35 0 0 0 0 .14v3.792a.314.314 0 0 0 0 .128c.004.283-.095.558-.28.774a1.03 1.03 0 0 1-.825.36h-12.34a1.06 1.06 0 0 1-.77-.337 1.094 1.094 0 0 1-.336-.797.314.314 0 0 0 0-.128V5.708a.314.314 0 0 0 0-.128V1.844a.35.35 0 0 0 0-.14c0-.294.12-.575.334-.78.2-.212.477-.334.768-.336h12.34c.297 0 .58.125.78.343.21.208.327.49.326.78a1.29 1.29 0 0 1-.088.375L125 5.378h1.915c.296 0 .58.125.78.343.2.21.307.49.302.78zm-4.7-1.165l2.943-3.304h-11.34v3.365h8.39l.006-.058zm-8.397 4.858h11.637V6.848h-11.637v3.363-.015zM88.36 2.048h12.748a.35.35 0 0 0 .35-.35c0-.292-.117-.573-.326-.78a1.065 1.065 0 0 0-.78-.342h-12.34a1.06 1.06 0 0 0-.768.337 1.094 1.094 0 0 0-.338.78.35.35 0 0 1 0 .14V5.58c.01.042.01.085 0 .128v4.724c.01.042.01.086 0 .128-.002.3.12.59.338.797.198.214.476.336.768.338h12.34c.316.013.62-.12.826-.36.184-.217.284-.492.28-.775a.314.314 0 0 1 0-.128V5.708a.35.35 0 0 0-.35-.35h-.756a.35.35 0 0 0-.35.35v4.497H88.368V5.708a.314.314 0 0 1 0-.128V2.042l-.006.006z" fill="#fff" fill-rule="evenodd"/></svg>
