<svg width="128" height="18" viewBox="0 0 128 18" xmlns="http://www.w3.org/2000/svg"><title>liveedu_logo</title><path d="M32.608.102a.675.675 0 0 0-.183.24l-6.076 14.83c-.16.4-.283.814-.366 1.237a7.903 7.903 0 0 0-.392-1.238L19.503.341a.63.63 0 0 0-.177-.246.44.44 0 0 0-.29-.094h-1.024l7.377 17.874h1.15L33.916 0h-1.011a.445.445 0 0 0-.297.1zM9.764 16.776H1.288V0H0v17.874h9.764v-1.1zm37.705.025h-9.41V9.348h7.831V8.3h-7.832V1.075h9.41V0h-10.71v17.874h10.71V16.8zM14.69 0h-1.3v17.874h1.3V0zm95.632 12.604a10.09 10.09 0 0 0 .648-3.667 10.082 10.082 0 0 0-.648-3.668 8.13 8.13 0 0 0-1.821-2.794 8.263 8.263 0 0 0-2.824-1.822 9.852 9.852 0 0 0-3.655-.653h-6.75v17.874h6.75a9.932 9.932 0 0 0 3.655-.648 8.012 8.012 0 0 0 4.645-4.622zm-3.104-.96a5.544 5.544 0 0 1-1.113 1.956 4.793 4.793 0 0 1-1.755 1.23c-.74.294-1.531.44-2.328.427h-3.436V2.616h3.436a6.046 6.046 0 0 1 2.328.428c.67.273 1.27.693 1.755 1.229.5.57.88 1.235 1.113 1.956a8.75 8.75 0 0 1 .39 2.709 8.743 8.743 0 0 1-.39 2.707zM124.71.001v10.587a5.748 5.748 0 0 1-.274 1.833c-.165.515-.436.99-.794 1.394a3.552 3.552 0 0 1-1.272.893 4.726 4.726 0 0 1-3.41 0 3.461 3.461 0 0 1-1.266-.899 4.005 4.005 0 0 1-.788-1.4 5.69 5.69 0 0 1-.276-1.833V0h-3.288v10.587c-.01.995.162 1.983.508 2.916a6.478 6.478 0 0 0 3.759 3.826 8.855 8.855 0 0 0 6.112 0 6.677 6.677 0 0 0 2.31-1.516 6.57 6.57 0 0 0 1.461-2.31 8.163 8.163 0 0 0 .508-2.916V0h-3.29zM81.274 17.875h11.15v-2.629h-7.837v-5h6.175v-2.53h-6.175v-5.1h7.836V.001h-11.15v17.874zM76.028 0H52.715a.777.777 0 0 0-.778.777v12.434a.777.777 0 0 0 .778.777h8.432a.192.192 0 0 1 .19.23 3.477 3.477 0 0 1-2.386 2.516l-.001.001a.583.583 0 0 0 .176 1.139h10.491a.583.583 0 0 0 .168-1.141l-.003-.002a3.471 3.471 0 0 1-2.375-2.507.193.193 0 0 1 .19-.236h8.431a.777.777 0 0 0 .777-.777V.778A.777.777 0 0 0 76.028 0zm-8.945 16.708h-5.422a.194.194 0 0 1-.195-.194c0-.047.016-.091.046-.127l.002-.003a4.619 4.619 0 0 0 1.025-2.238.19.19 0 0 1 .191-.158h3.282c.096 0 .177.07.192.164a4.62 4.62 0 0 0 1.03 2.238l.002.003a.195.195 0 0 1-.153.315zm8.557-4.08a.194.194 0 0 1-.195.194H53.297a.194.194 0 0 1-.194-.194V1.361c0-.108.087-.195.194-.195h22.148c.108 0 .195.087.195.195v11.268zM62.254 9.874a.583.583 0 0 0-.315-.762l-4.701-1.947-.005-.002a.19.19 0 0 1-.095-.168c0-.077.045-.146.115-.177l4.687-1.942a.583.583 0 1 0-.446-1.077L55.08 6.456a.583.583 0 0 0-.292.812l.001.002.026.044.004.005.03.042.002.002a.569.569 0 0 0 .075.077l.01.007c.01.01.022.018.034.026l.009.006c.014.01.03.019.045.027l.01.005a.558.558 0 0 0 .039.019l.007.004 6.413 2.655a.582.582 0 0 0 .761-.315zM74.02 6.937l-.002-.014a.584.584 0 0 0-.007-.043l-.002-.01a.56.56 0 0 0-.081-.193l-.002-.003a.576.576 0 0 0-.03-.04l-.004-.006a.581.581 0 0 0-.032-.036l-.006-.007a.576.576 0 0 0-.035-.032l-.007-.006a.585.585 0 0 0-.04-.03l-.006-.004a.585.585 0 0 0-.108-.058L67.25 3.8a.583.583 0 0 0-.446 1.077l4.692 1.943a.195.195 0 0 1-.007.353l-.003.002-4.682 1.94a.583.583 0 1 0 .446 1.077l6.414-2.658.004-.002a.59.59 0 0 0 .047-.022l.004-.002a.563.563 0 0 0 .047-.029l.007-.005a.596.596 0 0 0 .036-.027l.01-.008a.563.563 0 0 0 .036-.033l.002-.002a.576.576 0 0 0 .036-.04l.005-.006a.582.582 0 0 0 .025-.036l.008-.01a.568.568 0 0 0 .02-.035l.007-.011a.571.571 0 0 0 .042-.102l.004-.02.009-.036.004-.023.004-.033.001-.022.002-.036v-.018l-.003-.039zm-7.543-5.022a.583.583 0 0 0-.761.315l-3.765 9.083a.583.583 0 0 0 1.077.446l3.764-9.083a.583.583 0 0 0-.315-.761zm7.496 1.7a.775.775 0 1 0 0-1.549.775.775 0 0 0 0 1.55z" fill="#fff" fill-rule="evenodd"/></svg>
