<svg width="128" height="40" viewBox="0 0 128 40" xmlns="http://www.w3.org/2000/svg"><title>Livehouse</title><path d="M44.595 19.63l-2.762 1.753c-.56.41-1.38-.075-1.38-.634v-3.474c0-.634.858-1.082 1.38-.71l2.762 1.792c.485.335.448.86 0 1.27zm.26 6.194h-7.2c-1.01 0-1.53-.485-1.53-1.53v-10.3c0-1.008.52-1.53 1.53-1.53h6.007c1.007 0 1.23 1.605 1.27 2.127a.08.08 0 0 1-.076.078h-6.42a.08.08 0 0 0-.073.074v8.808a.08.08 0 0 0 .074.075h5.225c1.045 0 1.23 1.567 1.27 2.127a.08.08 0 0 1-.076.074zM34.295 12.65v.038c-.223.522-1.38 3.433-2.5 6.27a2844.86 2844.86 0 0 0-2.35 5.97c-.075.187-.224.41-.45.597-.185.187-.483.3-.782.3-.373 0-.634-.076-.858-.3-.224-.224-.373-.41-.448-.597l-2.24-5.97-2.35-6.307v-.035c0-.037 0-.074.037-.074.374-.075 2.053-.374 2.5.634l2.09 5.784 1.195 3.284s.035.04.072.04c.038 0 .075 0 .075-.04l1.27-3.282 2.238-5.896c.41-.895 2.015-.596 2.463-.484.036 0 .073.037.036.075zM20.488 25.713a.08.08 0 0 1-.074.074c-.485-.037-2.127-.335-2.127-1.23V12.5a.08.08 0 0 1 .074-.073c.486.074 2.128.336 2.128 1.27V25.71zm-4.104.074h-7.39c-1.007 0-1.53-.485-1.53-1.53V12.54a.08.08 0 0 1 .075-.076c.484.037 2.126.336 2.126 1.232v9.814a.08.08 0 0 0 .075.075h5.524c.97 0 1.12 1.68 1.194 2.127a.08.08 0 0 1-.074.074zM27.094 0H24.78C11.082 0 .82 5.336 0 18.51c0 6.642 2.724 10.934 7.128 13.583-.224.71-.597 1.53-1.045 2.538-1.194 2.615-3.172 4.89-2.724 5.227.444.336 3.504-.67 6.266-2.2 2.836-1.57 4.142-2.54 4.478-2.838.037-.038.075-.075.112-.075 3.21.71 6.792 1.082 10.56 1.082h2.315c13.696 0 24.78-3.247 24.78-17.353C50.603 4.404 40.75 0 27.093 0zm73.7 20.786c.113-.41.337-.784.598-1.12.56-.71 1.307-1.082 2.165-1.12.597 0 1.157.262 1.642.747.333.336.56.82.67 1.53 0 .112-.04.15-.15.15h-4.815c-.037 0-.15-.075-.112-.187zm.04 2.015h6.156c.71 0 1.082-.295 1.12-.893 0-1.306-.224-2.35-.71-3.134-.485-.783-1.082-1.38-1.79-1.753-.672-.337-1.344-.524-2.053-.524-1.567 0-2.836.635-3.807 1.866-.783 1.045-1.194 2.314-1.23 3.77 0 1.492.484 2.835 1.417 3.88.97 1.12 2.24 1.717 3.732 1.717.706 0 1.452-.226 2.236-.674.784-.448 1.38-.97 1.754-1.567.038-.113.113-.188.15-.26v-.077c0-.037 0-.075-.037-.112-.41-.335-1.456-1.044-2.015-.484-.225.336-.524.597-.897.82-.334.188-.71.3-1.155.3a2.807 2.807 0 0 1-2.164-.97 3.62 3.62 0 0 1-.783-1.717c-.075-.113 0-.188.075-.188zm-4.853-.184c-.444-.447-1.415-.932-2.91-1.492-1.192-.448-1.9-.747-2.125-.933-.15-.112-.26-.336-.26-.597 0-.26.11-.523.372-.71.3-.223.784-.372 1.38-.372.524 0 .97.075 1.27.224.26.15.485.336.672.56.52.523 1.49-.186 1.865-.522 0 0 .037 0 .037-.036.038-.037.038-.037.038-.074v-.04c-.037-.148-.112-.26-.186-.41-.335-.596-.858-1.044-1.53-1.342a4.933 4.933 0 0 0-1.977-.41c-1.27 0-2.277.335-3.023 1.044-.597.597-.933 1.343-.933 2.164 0 .56.15 1.045.448 1.456.336.41 1.418.97 3.247 1.716 1.156.486 1.865.82 2.052 1.045.112.15.187.373.224.635 0 .224-.15.485-.447.746-.224.224-.71.336-1.455.336-.635 0-1.157-.112-1.53-.336a1.933 1.933 0 0 1-.784-.858c-.298-.523-1.454.037-1.94.373 0 0-.037 0-.037.036-.037.038-.037.075-.037.112v.037c.036.187.11.41.26.598.3.597.784 1.12 1.38 1.492.673.41 1.53.635 2.5.635 1.307 0 2.35-.3 3.06-.934.785-.672 1.195-1.493 1.195-2.426a2.496 2.496 0 0 0-.82-1.716zM86.655 17.8c0-1.007-1.455-1.194-1.94-1.23h-.038c-.075 0-.112.036-.112.11v5.71c0 .897-.298 1.644-.933 2.203-.45.41-1.045.635-1.754.672-.634 0-1.12-.187-1.455-.56-.3-.336-.447-.858-.447-1.567v-5.374c0-1.007-1.455-1.194-1.94-1.23h-.038c-.074 0-.112.036-.112.11v6.42c0 1.417.336 2.5.97 3.246.56.633 1.456.97 2.687.97.82 0 1.53-.225 2.05-.71.337-.298.56-.56.747-.784.038-.037.075-.074.112-.074.073 0 .11.037.11.112v.672c0 .932 1.455 1.194 1.94 1.23h.04c.073 0 .11-.036.15-.11V17.8h-.04zM64.45 20.935c0-1.194-.188-2.127-.598-2.724a4.01 4.01 0 0 0-1.305-1.19c-.597-.3-1.27-.45-2.053-.45-.97 0-1.79.336-2.5.97-.037.038-.075.038-.112.038-.075 0-.112-.038-.112-.15V11.83c0-.97-1.455-1.195-1.94-1.232h-.038c-.075 0-.112.037-.112.112v15.897c0 .82 1.456 1.12 1.94 1.157h.038c.075 0 .112-.037.112-.112v-6.456c.037-.447.112-.82.26-1.156.15-.374.412-.747.822-1.045.3-.224.71-.336 1.232-.336.746 0 1.343.183 1.754.56.335.332.522.892.522 1.676v5.598c0 .932 1.455 1.194 1.94 1.23.075 0 .112-.036.112-.11v-6.68h.038zm9.29 3.098a2.797 2.797 0 0 1-.932 1.156c-.41.296-.97.483-1.68.483-.56 0-1.082-.15-1.53-.448-.373-.262-.708-.672-1.007-1.157-.222-.524-.37-1.27-.37-2.09 0-.82.15-1.494.41-1.98a3.25 3.25 0 0 1 1.007-1.006c.373-.224.896-.374 1.53-.374.522 0 1.045.15 1.53.412.336.224.634.597.933 1.082.223.448.372 1.12.372 1.978a5.096 5.096 0 0 1-.26 1.94zm-.036-6.942c-.672-.37-1.493-.556-2.463-.556-1.006 0-1.864.186-2.573.634-.747.523-1.306 1.12-1.717 1.79-.486.86-.747 1.905-.747 3.06 0 1.233.224 2.352.634 3.21a5.25 5.25 0 0 0 1.68 1.83c.746.447 1.64.708 2.686.708 1.083 0 2.053-.26 2.874-.82.634-.41 1.157-1.046 1.567-1.904.336-.745.523-1.753.523-2.91 0-1.27-.262-2.39-.784-3.32-.41-.71-.97-1.27-1.68-1.718zm54.185 10.49V20.9c0-1.083-.15-1.94-.487-2.464a3.56 3.56 0 0 0-1.344-1.232c-.6-.298-1.27-.447-2.017-.447-.933 0-1.754.335-2.463 1.044-.035.04-.035.04-.072.04-.038 0-.075-.04-.112-.075-.41-.82-1.344-1.082-1.903-1.194-.075 0-.112.037-.112.11v9.928c0 .71 1.38 1.045 1.905 1.12.074 0 .112-.037.112-.112V21.16c.037-.45.112-.822.26-1.12.15-.374.41-.71.822-1.008.3-.224.71-.336 1.193-.336.747 0 1.307.187 1.718.56.337.336.523.895.523 1.68v5.82c0 .71 1.418.934 1.903 1.008h.038c0-.037.038-.074.038-.186zM114.9 16.53c-.036 0-.036 0 0 0-.11 0-.148.037-.148.112v10c0 .747 1.38 1.008 1.903 1.046.075 0 .112-.038.112-.112v-9.703c.038-.896-1.268-1.23-1.866-1.343zm1.718-3.583c-.224-.226-.522-.338-.896-.338-.373 0-.67.11-.895.335-.224.223-.336.522-.336.895s.115.672.34.895c.223.224.52.336.894.336s.672-.11.896-.335c.223-.223.335-.522.335-.895a1.08 1.08 0 0 0-.336-.896zM111.43 24.85c-.41 0-.78.15-1.08.41-.223.224-.335.56-.372 1.008 0 .41.15.784.41 1.046.26.223.597.373 1.045.373.41 0 .747-.113 1.008-.374.263-.262.41-.635.41-1.045 0-.41-.11-.746-.37-1.007-.26-.26-.598-.41-1.046-.41z" fill="#fff" fill-rule="evenodd"/></svg>
