<svg xmlns="http://www.w3.org/2000/svg" width="100" height="30" viewBox="0 0 100 30">
  <path fill="#fff" d="M60.7412791,9.375 C61.5697674,8.25581395 63.1976744,8.08139535 64.2587209,9.04069767 C65.1744186,9.88372093 65.247093,11.3081395 64.505814,12.3110465 L59.7238372,18.7209302 L64.5348837,25.1889535 C65.2761628,26.1918605 65.2180233,27.6162791 64.2877907,28.4593023 C63.2267442,29.4186047 61.5988372,29.244186 60.7703488,28.125 L54.0697674,19.0843023 C53.9098837,18.8662791 53.9098837,18.5610465 54.0697674,18.3430233 L60.7412791,9.375 Z M81.2645349,24.8837209 L82.8197674,26.9476744 C83.0523256,27.252907 82.9505814,27.7180233 82.5872093,27.877907 C77.7616279,30.0872093 67.122093,30.3343023 67.122093,18.9534884 C67.122093,7.97965116 78.4738372,6.14825581 82.8488372,10.9883721 C84.6366279,12.9505814 85.1162791,15.494186 85.1162791,18.125 C85.1162791,19.3023256 84.1715116,20.247093 82.994186,20.247093 L72.005814,20.247093 C72.4273256,26.0610465 78.1686047,25.5523256 80.6540698,24.6947674 C80.872093,24.622093 81.119186,24.6947674 81.2645349,24.8837209 Z M73.5465116,13.5465116 C72.7761628,14.3313953 72.252907,15.3488372 72.0203488,16.5697674 L80.3488372,16.5697674 C80.3197674,15.2034884 79.9709302,14.1569767 79.3313953,13.4302326 C78.6482558,12.6744186 77.6889535,12.2965116 76.4680233,12.2965116 C75.3488372,12.2965116 74.375,12.7180233 73.5465116,13.5465116 Z M99.4912791,8.77906977 C99.752907,8.85174419 99.9563953,9.11337209 99.9418605,9.38953488 L99.9418605,12.7180233 C99.9418605,13.1540698 99.505814,13.4447674 99.0988372,13.2994186 C95.377907,11.9186047 93.1831395,14.6511628 93.1831395,18.5465116 L93.1831395,27.9651163 C93.1831395,28.3139535 92.9069767,28.5901163 92.5581395,28.5901163 L89.0406977,28.5901163 C88.6918605,28.5901163 88.4156977,28.3139535 88.4156977,27.9651163 C88.4156977,23.7645349 88.4156977,12.1656977 88.4156977,8.51744186 L89.0261628,8.51744186 C91.1337209,8.51744186 92.877907,10.0872093 93.1395349,12.122093 C93.8953488,10.3633721 95.1453488,9.2005814 96.8459302,8.69186047 C97.2819767,8.60465116 98.6482558,8.54651163 99.4912791,8.77906977 Z M46.002907,9.375 L52.6889535,18.3575581 C52.8488372,18.5755814 52.8488372,18.880814 52.6889535,19.0988372 L45.9738372,28.125 C45.1453488,29.244186 43.5174419,29.4186047 42.4563953,28.4593023 C41.5261628,27.6162791 41.4680233,26.1918605 42.2093023,25.1889535 L47.0203488,18.7209302 L42.2383721,12.3110465 C41.497093,11.3081395 41.5697674,9.88372093 42.4854651,9.04069767 C43.5465116,8.08139535 45.1744186,8.25581395 46.002907,9.375 Z M35.4651163,8.47383721 C36.7877907,8.47383721 37.8488372,9.53488372 37.8488372,10.8575581 L37.8488372,27.9651163 C37.8488372,28.3139535 37.5726744,28.5901163 37.2238372,28.5901163 L33.7063953,28.5901163 C33.3575581,28.5901163 33.0813953,28.3139535 33.0813953,27.9651163 L33.0813953,10.8575581 C33.0813953,9.53488372 34.1569767,8.47383721 35.4651163,8.47383721 Z M32.9215116,2.54360465 C32.9215116,1.14825581 34.0552326,0 35.4651163,0 C36.875,0 38.0232558,1.14825581 38.0232558,2.54360465 C38.0232558,3.93895349 36.8895349,5.0872093 35.4796512,5.0872093 C34.0697674,5.0872093 32.9215116,3.95348837 32.9215116,2.54360465 Z M22.7325581,8.48837209 C27.5145349,8.48837209 29.2296512,11.6569767 29.244186,16.5116279 L29.244186,27.9651163 C29.244186,28.3139535 28.9680233,28.5901163 28.619186,28.5901163 L25.0872093,28.5901163 C24.7383721,28.5901163 24.4622093,28.3139535 24.4622093,27.9651163 L24.4622093,17.5290698 C24.4622093,14.4767442 23.8517442,12.4418605 20.8430233,12.4418605 C18.4011628,12.4418605 17.005814,15.1017442 17.005814,17.5872093 L17.005814,27.9505814 C17.005814,28.2994186 16.7296512,28.5755814 16.380814,28.5755814 L12.8633721,28.5755814 C12.5145349,28.5755814 12.2383721,28.2994186 12.2383721,27.9505814 L12.2383721,17.1511628 C12.2383721,13.9825581 11.0755814,12.4418605 8.6627907,12.4418605 C6.0755814,12.4418605 4.8255814,14.9709302 4.8255814,17.5872093 L4.8255814,27.9651163 C4.8255814,28.3139535 4.5494186,28.5901163 4.2005814,28.5901163 L0.683139535,28.5901163 C0.334302326,28.5901163 0.0581395349,28.3139535 0.0581395349,27.9651163 C0.0581395349,23.75 0.0581395349,12.1656977 0.0581395349,8.51744186 L0.654069767,8.51744186 C2.61627907,8.51744186 4.25872093,9.88372093 4.69476744,11.7296512 C7.51453488,7.39825581 14.3023256,7.29651163 16.2936047,12.005814 C17.7906977,9.69476744 19.8110465,8.48837209 22.7325581,8.48837209 Z"/>
</svg>
