<svg width="129" height="20" viewBox="0 0 129 20" xmlns="http://www.w3.org/2000/svg"><title>Mobrush</title><path d="M12.352 12.22h-2.61V7.5H4.88V4.99H0v14.676h4.908v-7.44h2.355V17.1h5.063v-4.906h2.493v7.49h4.722V5.014h-4.78v2.52H12.35v4.69-.003zM48.74 14.8h-4.912V0H38.97v19.672h9.744v-4.905h4.802V4.99h-8.708v4.904h3.915v4.89l.016.016zM119.447.01h-4.838v19.672h4.836V.01zM26.89 19.705v-9.83h3.628V5.012h-8.533v14.683h4.918l-.013.01zm1.064 0h8.553V4.99H31.62v9.83h-3.653v4.862l-.013.023zm101.036 0V4.99h-8.55v4.898h3.693v9.807H129l-.01.01zM83.373 4.99v14.69h8.523v-4.918H88.21V4.99h-4.837zM55.96 19.684h12.12V14.77h-7.282v-3.92h-4.87v8.835h.032zM97.776 4.99h-4.864v14.666h4.864V4.99zm-27.28 0v14.695h4.837V4.99h-4.838zm29.67 7.14h4.92V9.87h7.338V4.99h-12.256v7.13l-.003.01zm11.987 7.568v-7.27h-4.915v2.378h-7.05v4.89h11.97l-.005.002zm-56.215-9.87H68.06v-4.84H55.938v4.84zm20.4-.018h4.86V4.99h-4.86v4.837-.017z" fill="#fff" fill-rule="evenodd"/></svg>
