<svg width="112" height="18" viewBox="0 0 112 18" xmlns="http://www.w3.org/2000/svg"><title>younow_logo</title><path d="M25.225 0c4.597 0 8.072 3.444 8.072 7.778 0 4.333-3.475 7.778-8.072 7.778-4.596 0-8.072-3.445-8.072-7.778C17.153 3.444 20.63 0 25.225 0zm0 11.889c2.355 0 4.036-1.778 4.036-4.111 0-2.334-1.57-4.111-4.036-4.111-2.466 0-4.036 1.889-4.036 4.11 0 2.223 1.57 4.112 4.036 4.112zM50.002.333v15h-3.924v-1.222c-1.233 1-2.579 1.556-4.036 1.556-2.13 0-3.924-1-5.157-2.445-1.01-1.222-1.57-2.666-1.57-5V.333h4.036v8.111c0 1.334.337 2 .785 2.556.673.667 1.458.889 2.242.889 1.682 0 2.915-1.111 3.476-1.889V.333h4.148zm3.251 15v-15h3.924v1.223C58.298.666 59.756 0 61.437 0c2.13 0 4.036.889 5.27 2.444 1.009 1.223 1.57 2.667 1.57 5.223v7.666H64.24v-8c0-1.444-.336-2.222-.897-2.777-.56-.556-1.345-.89-2.242-.89-1.682 0-3.139 1.112-3.7 1.89v9.777h-4.148zM78.254 0c4.597 0 8.072 3.444 8.072 7.778 0 4.333-3.475 7.778-8.072 7.778-4.596 0-8.072-3.445-8.072-7.778C70.182 3.444 73.658 0 78.254 0zm0 11.889c2.355 0 4.036-1.778 4.036-4.111 0-2.334-1.57-4.111-4.036-4.111-2.466 0-4.036 1.889-4.036 4.11 0 2.223 1.682 4.112 4.036 4.112zm17.041 3.444h-2.803l-6.39-15h4.036l3.7 8.778L97.65.333h2.802l3.812 8.778 3.7-8.778H112l-6.39 15h-2.803l-3.812-8.777-3.7 8.777zM4.821 18h4.26L17.265.333h-4.26l-4.148 9-4.373-9H0l6.727 13.445L4.82 18z" fill="#fff" fill-rule="evenodd"/></svg>
