<svg width="48" height="48" viewBox="0 0 48 48" xmlns="http://www.w3.org/2000/svg"><title>Combined Shape</title><path d="M24 48c13.255 0 24-10.745 24-24S37.255 0 24 0 0 10.745 0 24s10.745 24 24 24zm-2.423-18.573c0-.644.015-1.288 0-1.932a3.42 3.42 0 0 1 1.148-2.74c.622-.556 1.306-1.098 2.054-1.448 1.28-.602 2.632-1.05 3.956-1.562.31-.12.636-.204.934-.345a1.37 1.37 0 0 0 .827-1.27 1.32 1.32 0 0 0-.772-1.297c-.457-.22-.946-.377-1.425-.554-.98-.36-1.988-.656-2.933-1.09a12.647 12.647 0 0 1-2.327-1.404c-1.008-.768-1.5-1.83-1.467-3.13.032-1.3 0-2.62 0-3.93a2.47 2.47 0 0 1 .064-.66c.254-.896 1.163-1.292 2.014-.887.18.084.35.192.523.294 6.24 3.713 12.46 7.453 18.728 11.117 1.334.784 1.38 2.194.01 3-6.28 3.688-12.526 7.434-18.784 11.158l-.346.2c-1.104.586-2.153-.014-2.2-1.258v-.133l-.003-2.133zm-10.4 10.505c0 .972.134 1.108 1.126 1.107 1.644 0 3.29-.006 4.933-.014.817 0 1.003-.175 1.003-.963l.01-32.065c0-.817-.17-.984-.974-.987h-4.533c-.29 0-.58-.012-.867 0-.474.03-.666.23-.696.716-.01.155 0 .31 0 .467v15.733c0 5.336-.002 10.67 0 16.004h-.003zm18.698 1.06l2.206-6.243h-.914l-1.733 5.166-1.6-5.16h-.923l2.023 6.232h.947-.005zm-5.22-2.7v-2.855h1.856v-.693h-4.56v.723h1.867V41h.83c.02-.91.01-1.81.01-2.708z" fill="#fff" fill-rule="evenodd"/></svg>
