<svg xmlns="http://www.w3.org/2000/svg" width="144" height="28" viewBox="0 0 144 28">
  <path fill="#fff" fill-rule="evenodd" d="M118.318028,8.73478071 C114.361848,8.73478071 112.088639,11.600427 112.088639,14.9734302 C112.088639,18.7911666 114.715366,21.2718096 118.028639,21.2718096 C118.044035,21.2718096 118.059314,21.2718096 118.074594,21.2716939 C119.639495,21.2602341 120.894749,19.9722212 120.894749,18.4075524 L120.894749,18.3611344 C120.894749,18.1728 120.662774,18.0869093 120.537179,18.2273209 C119.911983,18.9260219 119.248472,19.3316296 118.028639,19.3316296 C115.628215,19.3316296 114.148279,17.391218 114.148279,14.9734302 C114.148279,12.6151408 115.941797,10.70471 118.318028,10.70471 C120.94626,10.70471 121.909115,12.6150251 121.909115,14.9729672 L121.909115,14.6840412 L121.909115,17.2981505 C121.909115,17.2981505 121.907379,17.6837325 121.909115,18.8886328 C121.910157,19.5205428 122.234041,21.1053531 122.234388,21.1069736 L122.234388,21.1070894 C122.329077,21.3759897 122.423533,21.5554109 122.770453,21.5554109 L123.369835,21.5554109 L123.400974,21.5554109 C123.714556,21.5554109 123.968871,21.3010958 123.968871,20.9873981 L123.968871,17.2981505 L123.968871,14.6840412 C123.968871,11.600427 122.007392,8.73478071 118.318028,8.73478071 L118.318028,8.73478071 Z M70.0692309,8.73478071 C66.112935,8.73478071 63.8396103,11.600427 63.8396103,14.9734302 C63.8396103,18.7911666 66.4665685,21.2718096 69.7798418,21.2718096 C69.7951215,21.2718096 69.8104013,21.2718096 69.8257968,21.2716939 C71.3906971,21.2602341 72.6458354,19.9722212 72.6458354,18.4075524 L72.6458354,18.3611344 C72.6458354,18.1728 72.4138611,18.0869093 72.2882662,18.2273209 C71.6630701,18.9260219 70.9996746,19.3316296 69.7798418,19.3316296 C67.3791859,19.3316296 65.8993659,17.391218 65.8993659,14.9734302 C65.8993659,12.6151408 67.6927678,10.70471 70.0692309,10.70471 C72.6974624,10.70471 73.6600862,12.3255203 73.6602019,14.6835781 L73.6602019,14.6840412 L73.6602019,17.5876553 C73.6602019,17.5876553 73.6583498,17.6837325 73.6602019,18.8886328 C73.6613595,19.5205428 73.9852437,21.1053531 73.9854752,21.1069736 L73.9854752,21.1070894 C74.0800476,21.3759897 74.1746199,21.5554109 74.5215395,21.5554109 L75.1208064,21.5554109 L75.1520605,21.5554109 C75.4657582,21.5554109 75.7199576,21.3010958 75.7199576,20.9873981 L75.7199576,17.5876553 L75.7199576,14.6840412 C75.7199576,11.3109222 73.7585942,8.73478071 70.0692309,8.73478071 L70.0692309,8.73478071 Z M137.491212,17.9882855 C137.491212,19.8389865 137.849475,21.2718096 140.237398,21.2718096 C141.640472,21.2718096 143.252253,20.5255331 143.670247,20.2568643 C143.99853,20.0479254 144.088125,19.8688514 143.87907,19.5107035 L143.431212,18.7645428 C143.282234,18.5255074 143.16289,18.3464334 142.715032,18.5852373 C142.327019,18.7941762 141.282208,19.2420347 140.535932,19.2420347 C139.849385,19.2420347 139.550967,19.0031151 139.550967,17.8093273 L139.550967,10.8242855 L143.013565,10.8242855 C143.341964,10.8242855 143.580652,10.5556167 143.580652,10.257083 L143.580652,9.60040129 C143.580652,9.28716656 143.3268,9.03319871 143.013565,9.03319871 L139.550967,9.03319871 L139.550967,5.6601955 C139.550967,5.36177749 139.311932,5.09310868 139.01363,5.09310868 L138.058298,5.15260707 C137.75988,5.15260707 137.491212,5.42139164 137.491212,5.71980965 L137.491212,9.03319871 L135.968678,9.03319871 C135.655443,9.03319871 135.401707,9.28716656 135.401707,9.60040129 L135.401707,10.257083 C135.401707,10.5556167 135.640511,10.8242855 135.968678,10.8242855 L137.491212,10.8242855 L137.491212,17.9882855 Z M126.09588,19.3016489 C126.006401,19.5107035 126.09588,19.8092373 126.245205,19.9285814 C126.901887,20.4359383 128.125771,21.2718096 130.125797,21.2718096 C132.57345,21.2718096 134.245077,19.6300476 134.245077,17.8988064 C134.245077,15.7495717 132.394376,14.8241055 130.33462,13.8391408 C129.110736,13.2420733 128.125771,12.7943305 128.125771,11.8093659 C128.125771,11.3018932 128.484035,10.6153466 129.827263,10.6153466 C130.931687,10.6153466 132.215302,11.3317582 132.215302,11.3317582 C132.48397,11.481083 132.901732,11.3914881 133.080922,11.0630894 L133.31961,10.5854817 C133.4988,10.2571987 133.409205,9.83920514 133.140536,9.66024695 C132.57345,9.27211833 131.37943,8.73478071 129.827263,8.73478071 C127.051096,8.73478071 126.036266,10.5854817 126.036266,11.8391151 C126.036266,13.8690058 127.857102,14.9138161 129.43925,15.6899576 C131.170376,16.5555781 132.065977,17.0330701 132.065977,18.0778804 C132.065977,18.8837711 131.349565,19.5107035 130.125797,19.5107035 C128.603379,19.5107035 127.319765,18.4658932 127.319765,18.4658932 C126.991482,18.2570701 126.663199,18.3165685 126.513874,18.5554881 C126.424163,18.7046971 126.21534,19.1225749 126.09588,19.3016489 L126.09588,19.3016489 Z M110.366311,17.9243884 C110.303687,17.7722855 110.106671,17.7329286 109.9908,17.8494945 C109.297655,18.5458804 108.501141,19.3016489 106.902093,19.3016489 C104.663263,19.3016489 102.961771,17.391218 102.961771,15.0034109 C102.961771,12.6151408 104.693012,10.7645556 106.931842,10.7645556 C108.095996,10.7645556 109.080961,11.3317582 109.678144,12.0181891 C109.710093,12.046665 109.740305,12.0758354 109.769591,12.1046585 C109.960009,12.2916039 110.279726,12.2214559 110.374877,11.9720026 C110.522234,11.5858418 110.697141,11.2140347 110.897167,10.8592437 C110.987803,10.6983434 110.95898,10.4963498 110.83188,10.3624206 C109.815662,9.29133376 108.539456,8.73478071 106.961823,8.73478071 C103.708048,8.73478071 100.812652,11.5108322 100.812652,15.0331601 C100.812652,18.6149865 103.618453,21.2718096 106.931842,21.2718096 C108.558903,21.2718096 109.93489,20.5802855 110.87853,19.5682341 C110.978427,19.4611601 111.002967,19.3036167 110.934093,19.1742019 C110.731173,18.7919768 110.504523,18.2607743 110.366311,17.9243884 L110.366311,17.9243884 Z M88.0515203,20.4060733 C88.0515203,20.7180347 88.3066457,20.9733916 88.6187228,20.9733916 L89.5440733,20.9733916 C89.8560347,20.9733916 90.1112759,20.7180347 90.1112759,20.4060733 L90.1112759,12.4062019 C90.1112759,12.4062019 91.6934238,10.7346907 93.9618868,10.7346907 C95.6335138,10.7346907 96.6483434,11.8391151 96.6483434,14.1076939 L96.6483434,20.4060733 C96.6483434,20.7180347 96.9035846,20.9733916 97.215546,20.9733916 L98.1707614,20.9733916 C98.4826071,20.9733916 98.7378482,20.7180347 98.7378482,20.4060733 L98.7378482,14.1076939 C98.7378482,10.6153466 97.066337,8.73478071 94.1112116,8.73478071 C91.6934238,8.73478071 90.1112759,10.3166971 90.1112759,10.3166971 L90.1112759,4.11798328 C90.1112759,3.80602186 89.8560347,3.55078071 89.5440733,3.55078071 L88.6187228,3.55078071 C88.3066457,3.55078071 88.0515203,3.80602186 88.0515203,4.11798328 L88.0515203,20.4060733 Z M77.847546,19.3016489 C77.7579511,19.5107035 77.847546,19.8092373 77.996755,19.9285814 C78.6534367,20.4359383 79.8773209,21.2718096 81.8773466,21.2718096 C84.3248836,21.2718096 85.9966264,19.6300476 85.9966264,17.8988064 C85.9966264,15.7495717 84.1459254,14.8241055 82.0861698,13.8391408 C80.8622855,13.2420733 79.8773209,12.7943305 79.8773209,11.8093659 C79.8773209,11.3018932 80.2355846,10.6153466 81.5788129,10.6153466 C82.6831215,10.6153466 83.9668514,11.3317582 83.9668514,11.3317582 C84.2355203,11.481083 84.6533981,11.3914881 84.832472,11.0630894 L85.0711601,10.5854817 C85.2503498,10.2571987 85.160755,9.83920514 84.8920862,9.66024695 C84.3248836,9.27211833 83.1309801,8.73478071 81.5788129,8.73478071 C78.8027614,8.73478071 77.7878161,10.5854817 77.7878161,11.8391151 C77.7878161,13.8690058 79.6086521,14.9138161 81.1908,15.6899576 C82.9220412,16.5555781 83.8175267,17.0330701 83.8175267,18.0778804 C83.8175267,18.8837711 83.1011151,19.5107035 81.8773466,19.5107035 C80.3549286,19.5107035 79.0714302,18.4658932 79.0714302,18.4658932 C78.7430315,18.2570701 78.4147486,18.3165685 78.2654238,18.5554881 C78.1758289,18.7046971 77.96689,19.1225749 77.847546,19.3016489 L77.847546,19.3016489 Z M43.1154174,20.4061891 C43.1154174,20.7180347 43.3706585,20.9733916 43.6826199,20.9733916 L44.6079704,20.9733916 C44.9199318,20.9733916 45.175173,20.7180347 45.175173,20.4061891 L45.175173,12.4361826 C45.175173,12.4361826 46.4586714,10.7346907 48.5778096,10.7346907 C50.3988772,10.7346907 51.4137068,11.8391151 51.4137068,14.1076939 L51.4137068,20.4061891 C51.4137068,20.7180347 51.6689479,20.9733916 51.9809093,20.9733916 L52.9361248,20.9733916 C53.2480862,20.9733916 53.5033273,20.7180347 53.5033273,20.4061891 L53.5033273,14.1076939 C53.5033273,13.4809929 53.4435974,12.9137904 53.3540026,12.4063177 C53.7719961,12.0181891 55.0554945,10.7346907 56.9957904,10.7346907 C58.7271473,10.7346907 59.6823627,11.8690958 59.6823627,14.1076939 L59.6823627,20.4061891 C59.6823627,20.7180347 59.9376039,20.9733916 60.2494495,20.9733916 L61.204665,20.9733916 C61.5166264,20.9733916 61.7718675,20.7180347 61.7718675,20.4061891 L61.7718675,14.1076939 C61.7718675,11.0033595 60.6075974,8.73478071 57.1449994,8.73478071 C54.7569608,8.73478071 52.8465299,10.5556167 52.6973209,10.6749608 C51.9211794,9.42132733 50.637681,8.73478071 48.8764592,8.73478071 C46.3990572,8.73478071 44.9959833,10.3166971 44.9959833,10.3166971 L44.7273145,9.39146238 C44.6675846,9.15254277 44.5183756,9.03319871 44.2497068,9.03319871 L43.6826199,9.03319871 C43.3706585,9.03319871 43.1154174,9.28843987 43.1154174,9.60040129 L43.1154174,20.4061891 Z M32.8514817,19.3016489 C32.9708257,19.1225749 33.1797646,18.7046971 33.2693595,18.5554881 C33.4186842,18.3165685 33.7469672,18.2570701 34.0752502,18.4658932 C34.0752502,18.4658932 35.3588643,19.5107035 36.8812823,19.5107035 C38.1051666,19.5107035 38.8214624,18.8837711 38.8214624,18.0778804 C38.8214624,17.0330701 37.9259768,16.5555781 36.1947357,15.6899576 C34.6125878,14.9138161 32.7917518,13.8690058 32.7917518,11.8391151 C32.7917518,10.5854817 33.8066971,8.73478071 36.5827486,8.73478071 C38.1349158,8.73478071 39.328935,9.27211833 39.8960219,9.66024695 C40.1646907,9.83920514 40.2542855,10.2571987 40.0750958,10.5854817 L39.8364077,11.0630894 C39.6573338,11.3914881 39.2394559,11.481083 38.9707871,11.3317582 C38.9707871,11.3317582 37.687173,10.6153466 36.5827486,10.6153466 C35.2395203,10.6153466 34.8812566,11.3018932 34.8812566,11.8093659 C34.8812566,12.7943305 35.8662212,13.2420733 37.0901055,13.8391408 C39.1498611,14.8241055 41.0005621,15.7495717 41.0005621,17.8988064 C41.0005621,19.6300476 39.328935,21.2718096 36.8812823,21.2718096 C34.8812566,21.2718096 33.6573723,20.4359383 33.0006907,19.9285814 C32.8514817,19.8092373 32.7618868,19.5107035 32.8514817,19.3016489 Z M5.56220836,12.3853775 C5.36646559,12.3853775 5.16748167,12.3475254 4.97544309,12.2675383 L0.940780707,10.5874611 C0.161976849,10.2631138 -0.206589068,9.3686701 0.117758199,8.58986624 C0.442105466,7.81094662 1.3365492,7.44238071 2.11546881,7.76684373 L6.15013119,9.44703666 C6.92893505,9.77126817 7.29738521,10.6658277 6.97303794,11.4446315 C6.72879357,12.0315125 6.1605492,12.3853775 5.56220836,12.3853775 Z M17.204018,27.5393055 C16.5971113,27.5393055 16.0229633,27.175254 15.7846225,26.5771447 L13.6223074,21.1553826 C13.3096514,20.3716013 13.691645,19.4828296 14.4753106,19.1702894 C15.2593235,18.8579807 16.1478637,19.2397428 16.4601723,20.0232926 L18.6224875,25.4452862 C18.9351434,26.2289518 18.5531498,27.1176077 17.7694842,27.4302637 C17.5838122,27.5042315 17.3922367,27.5393055 17.204018,27.5393055 Z M19.1470572,12.5647756 C18.5401505,12.5647756 17.9661183,12.2007241 17.7276617,11.6026148 C17.4151215,10.8189492 17.7969994,9.93029325 18.5807807,9.61775305 L24.0026585,7.45532219 C24.7867871,7.14289775 25.6752116,7.52477556 25.9875203,8.3083254 C26.3000605,9.09210675 25.9180669,9.9807627 25.1344013,10.2933029 L19.7125235,12.4557338 C19.5269672,12.5297016 19.3353916,12.5647756 19.1470572,12.5647756 Z M22.9661942,19.9224926 C22.7589916,19.9224926 22.5483164,19.880126 22.3465543,19.7904154 L18.4518405,18.05929 C17.6807923,17.7166534 17.3336412,16.8138752 17.6763936,16.0427113 C18.0189145,15.2718945 18.9213453,14.9241646 19.6928566,15.2672643 L23.5875704,16.998274 C24.3586186,17.3409106 24.7057698,18.2438045 24.3630174,19.0148527 C24.1100913,19.5841389 23.5514547,19.9224926 22.9661942,19.9224926 Z M7.10902765,27.4060244 C6.90772862,27.4060244 6.70318842,27.365973 6.50651961,27.2814714 C5.73141994,26.9483267 5.37304051,26.0498315 5.70618521,25.2746161 L8.0109955,19.9117736 C8.34414019,19.136674 9.24240386,18.7781788 10.017735,19.1114392 C10.7929505,19.4445839 11.1513299,20.3430791 10.8181852,21.1182945 L8.51337492,26.4812527 C8.26461608,27.0596836 7.70111768,27.4060244 7.10902765,27.4060244 Z M15.2200707,8.53367846 C15.029537,8.53367846 14.8361093,8.49779421 14.6485852,8.42220579 C13.8661929,8.10630868 13.4880193,7.21603215 13.8040322,6.43363987 L14.777537,4.02198714 C15.0934341,3.23959486 15.9838264,2.86188424 16.7661029,3.17731833 C17.5484952,3.49333119 17.9266688,4.38349196 17.6106559,5.16588424 L16.6371511,7.57753698 C16.3969582,8.17240514 15.8244309,8.53367846 15.2200707,8.53367846 Z M9.59438199,8.45935177 C8.98805402,8.45935177 8.41460064,8.09611061 8.17556527,7.49892733 L6.01325016,2.09568617 C5.69978392,1.31236785 6.08061994,0.423248875 6.86393826,0.109782637 C7.6474881,-0.203567846 8.53649132,0.177152412 8.84995756,0.96047074 L11.0122727,6.3637119 C11.3257389,7.14703023 10.9449029,8.0361492 10.1615846,8.34961543 C9.97544952,8.4240463 9.78329518,8.45935177 9.59438199,8.45935177 Z M1.88510354,19.4641003 C1.28028039,19.4641003 0.707521543,19.1024797 0.467675884,18.506917 C0.152241801,17.724409 0.530994212,16.834364 1.31361801,16.5190457 L4.9175537,15.0668913 C5.70006174,14.751573 6.59022251,15.1304412 6.90554084,15.9129492 C7.22085916,16.6954572 6.84210675,17.5855023 6.05948296,17.9009363 L2.45566302,19.3530907 C2.26860193,19.4284476 2.07517428,19.4641003 1.88510354,19.4641003 Z"/>
</svg>
