<svg xmlns="http://www.w3.org/2000/svg" width="128" height="17"><path fill="#FFF" d="M127.878 11.12h-8.312c.13.762.41 1.32.84 1.676.431.356 1.004.534 1.72.534.6 0 1.092-.113 1.474-.34a1.67 1.67 0 0 0 .768-.995l3.364 1.068c-.341 1.036-1.004 1.826-1.987 2.368-.983.542-2.19.813-3.62.813-2.129 0-3.758-.55-4.887-1.651-1.13-1.1-1.694-2.655-1.694-4.662s.552-3.561 1.657-4.662c1.105-1.1 2.673-1.651 4.705-1.651 1.966 0 3.474.538 4.522 1.614C127.476 6.31 128 7.818 128 9.761c0 .55-.04 1.004-.122 1.36zm-8.337-2.233h4.583c-.195-1.586-.943-2.38-2.243-2.38-1.316 0-2.096.794-2.34 2.38zm-7.47-4.152c.772.745 1.158 1.805 1.158 3.18v8.086h-4.144V8.863c0-1.392-.552-2.088-1.657-2.088-.65 0-1.17.234-1.56.704-.39.47-.585 1.15-.585 2.04V16h-4.144V8.863c0-1.392-.553-2.088-1.658-2.088-.618 0-1.13.234-1.536.704-.406.47-.61 1.173-.61 2.112v6.41h-4.143V3.861h3.705l.122 2.33c.39-.84.934-1.48 1.633-1.918.699-.437 1.52-.655 2.462-.655.927 0 1.727.21 2.401.631.675.421 1.158 1.028 1.45 1.821.39-.793.947-1.4 1.67-1.82.723-.422 1.532-.632 2.426-.632 1.235 0 2.238.372 3.01 1.117zm-22.11 7.673c.43.388.646.93.646 1.627 0 .68-.216 1.214-.646 1.602-.431.389-1.028.583-1.792.583s-1.361-.194-1.792-.583c-.43-.388-.646-.922-.646-1.602 0-.696.215-1.239.646-1.627.43-.389 1.028-.583 1.792-.583s1.36.194 1.792.583zm-7.898-7.673c.772.745 1.158 1.805 1.158 3.18v8.086h-4.144V8.863c0-1.392-.553-2.088-1.658-2.088-.65 0-1.17.234-1.56.704-.39.47-.585 1.15-.585 2.04V16H71.13V8.863c0-1.392-.553-2.088-1.658-2.088-.618 0-1.13.234-1.535.704-.407.47-.61 1.173-.61 2.112v6.41h-4.144V3.861h3.705l.122 2.33c.39-.84.935-1.48 1.634-1.918.698-.437 1.519-.655 2.462-.655.926 0 1.726.21 2.4.631.675.421 1.159 1.028 1.451 1.821.39-.793.947-1.4 1.67-1.82.723-.422 1.531-.632 2.425-.632 1.235 0 2.239.372 3.01 1.117zM61.55 13.549l-.317 2.307c-.471.258-1.024.388-1.657.388-1.756 0-2.804-.623-3.145-1.87-.731 1.247-2.178 1.87-4.34 1.87-1.218 0-2.153-.259-2.802-.777-.65-.518-.976-1.27-.976-2.258 0-1.036.37-1.873 1.11-2.513.739-.64 1.954-1.13 3.644-1.47l2.754-.533v-.437c0-.55-.154-.988-.463-1.312-.309-.323-.731-.485-1.267-.485-.618 0-1.122.145-1.512.437-.39.291-.642.769-.755 1.432l-3.364-.97c.21-1.182.796-2.101 1.755-2.757.958-.655 2.25-.983 3.876-.983 1.901 0 3.347.388 4.339 1.165.99.777 1.487 1.943 1.487 3.497v4.42c0 .63.292.946.877.946.309 0 .561-.032.756-.097zm-6.411-.45c.455-.315.683-.731.683-1.25v-1.044l-1.975.462c-.52.13-.89.287-1.11.473-.219.186-.328.45-.328.79s.105.598.317.776c.21.178.503.267.877.267.569 0 1.081-.158 1.536-.473zm-8.556-1.978h-8.312c.13.76.41 1.32.84 1.675.431.356 1.004.534 1.72.534.6 0 1.092-.113 1.474-.34a1.67 1.67 0 0 0 .768-.995l3.364 1.068c-.341 1.036-1.004 1.826-1.987 2.368-.983.542-2.19.813-3.62.813-2.129 0-3.758-.55-4.887-1.651-1.13-1.1-1.694-2.655-1.694-4.662s.552-3.561 1.657-4.662c1.105-1.1 2.674-1.651 4.705-1.651 1.966 0 3.474.538 4.522 1.614 1.048 1.077 1.572 2.586 1.572 4.529 0 .55-.04 1.004-.122 1.36zm-8.337-2.234h4.583c-.195-1.586-.942-2.38-2.242-2.38-1.317 0-2.097.794-2.34 2.38zm-4.9-5.002l-.438 3.497a2.59 2.59 0 0 0-.658-.255 3.432 3.432 0 0 0-.878-.11c-.78 0-1.43.247-1.95.741s-.78 1.202-.78 2.125V16h-4.144V3.861h3.657l.17 2.622c.293-.923.752-1.63 1.378-2.124.625-.494 1.401-.741 2.328-.741.552 0 .99.089 1.316.267zM22.744 15.321c-.406.276-.922.498-1.548.668a7.177 7.177 0 0 1-1.89.255c-1.446 0-2.55-.307-3.314-.923-.764-.615-1.154-1.602-1.17-2.962V6.8h-2.097V3.86h2.097V1.14L18.965 0v3.86h3.656V6.8h-3.656v4.88c0 1.085.536 1.627 1.608 1.627.667 0 1.252-.178 1.756-.534l.414 2.55zM0 14.107l2.145-2.33c.699 1.149 1.902 1.723 3.608 1.723.568 0 1.015-.076 1.34-.23.325-.154.488-.36.488-.62 0-.226-.167-.424-.5-.594-.333-.17-.906-.336-1.718-.498-1.82-.356-3.117-.841-3.888-1.457C.703 9.486.317 8.67.317 7.65c0-.696.22-1.352.658-1.967.439-.615 1.1-1.113 1.987-1.493.885-.38 1.962-.571 3.23-.571 1.397 0 2.539.19 3.425.57.885.381 1.604.952 2.157 1.713L9.629 7.989c-.39-.567-.853-.98-1.39-1.239-.536-.258-1.178-.388-1.925-.388-.585 0-1.04.089-1.366.267-.325.178-.487.397-.487.655 0 .243.166.45.5.62.332.17.914.336 1.743.497 1.787.308 3.075.765 3.863 1.372.788.607 1.183 1.437 1.183 2.49 0 1.181-.496 2.14-1.487 2.876-.992.737-2.43 1.105-4.315 1.105-2.795 0-4.778-.712-5.948-2.137z"/></svg>
