<svg width="110" height="21" viewBox="0 0 110 21" xmlns="http://www.w3.org/2000/svg"><title>Ustream</title><path d="M77.443 11.817l1.19-4.312c.328-1.178.625-2.71.923-3.916h.057c.298 1.203.653 2.71 1.022 3.913l1.262 4.312h-4.454zm-17.99 5.107l-.594-2.185c-.528-1.875-1.32-3.22-2.755-3.804v-.086c1.347-.48 2.752-1.63 3.347-3.29v9.363zm-8.042-7.76h-1.84V3.56c.34-.056.98-.155 2.113-.155 2.144.028 3.434.964 3.434 2.837.015 1.773-1.376 2.922-3.702 2.922zM108.925.128h-6l-2.17 6.752c-.668 2.256-1.363 4.937-1.93 7.292h-.086c-.454-2.383-1.078-4.95-1.716-7.263L95.035.125H88.92L87.87 16.74 82.76.142h-5.986l-5.022 16.555H64.05v-4.823h7.477v-3.73H64.05v-4.23h7.917V.157H59.44v3.73a4.71 4.71 0 0 0-1.603-2.283C56.377.454 54.234 0 51.17 0c-2.242 0-23.095.043-25.11.043-4.866 0-7.802 2.482-7.802 5.9 0 2.923 2.227 4.768 5.66 5.93 2.483.866 3.46 1.576 3.46 2.824 0 1.305-1.133 2.17-3.276 2.17-1.986 0-4.2-.127-6.454-.127-.68 1.844-1.66 2.98-2.937 3.816 4.826 0 6.77.028 9.125.028 5.66 0 8.313-2.85 8.313-6.213 0-2.82-1.717-4.68-5.348-5.984-2.668-.98-3.83-1.546-3.83-2.823 0-1.035.977-1.588 2.992-1.588s1.093.014 4.61.014h5.378v16.455h4.54V3.985h4.454v16.47h4.625v-7.97h1.402c1.902.027 2.796.722 3.335 3.25.61 2.494 1.106 4.126 1.433 4.736h19.58l1.432-5.22h5.774l1.548 5.22h4.908v-.01h2.866l.368-7.72c.157-2.54.242-5.66.355-8.412h.057c.482 2.653 1.177 5.547 1.844 7.958l2.17 7.845h3.59l2.47-7.93c.78-2.382 1.63-5.276 2.255-7.872h.085c0 2.95.084 5.9.183 8.355l.297 7.775H110L108.922.128zm-92.338.27h-4.568v11.618c0 3.532-1.32 5.192-3.73 5.192-2.356 0-3.675-1.745-3.675-5.192V.396H0V11.66c0 6.386 3.007 9.166 8.13 9.166 5.29 0 8.454-2.936 8.454-9.107V.396z" fill="#fff" fill-rule="evenodd"/></svg>
