<svg width="108" height="20" viewBox="0 0 108 20" xmlns="http://www.w3.org/2000/svg"><title>Vapers-TV-Logotype</title><g fill="#fff" fill-rule="evenodd"><path d="M14.482.274h2.963L9.737 19.53h-2.03L0 .273h3.017l5.705 14.373zM30.2 13.084h-9.52l-2.577 6.39h-.658L25.18 0h.575l7.708 19.474h-.658l-2.606-6.39zm-9.258-.577h9.024c-1.536-3.95-2.963-7.68-4.5-11.63l-4.524 11.63zM41.325.274c3.84 0 5.787 3.017 5.787 5.98 0 3.017-1.947 5.98-5.787 5.98h-6.062v7.24h-.604V.274h6.664zm0 11.383c3.483 0 5.21-2.688 5.21-5.376 0-2.686-1.713-5.4-5.21-5.4h-6.062v10.78h6.062zm8.45 7.24h10.12v.577H49.2V.274h10.63V.85H49.775v8.723h9.847v.603h-9.847zm12.71.577h-.575V.274h6.66c3.87 0 5.79 2.853 5.79 5.65 0 2.798-1.92 5.623-5.79 5.623h-2.88l8.78 7.927h-.88l-8.79-7.98V11h3.77c3.485 0 5.213-2.553 5.213-5.076C73.783 3.4 72.07.878 68.57.878h-6.084v18.596zM87.574 4.39a4.68 4.68 0 0 0-1.03-2.06C85.42 1.18 83.46.618 81.853.618c-1.78.028-3.81.686-4.935 2.14a3.963 3.963 0 0 0-.796 2.852c.248 3.18 3.32 3.62 6.09 3.92 2.77.303 5.76.687 6.39 3.595.087.387.133.782.138 1.18 0 3.4-3.51 5.348-6.802 5.348-2.798 0-6.226-1.62-6.555-4.746l-.027-.246.604-.053.027.247c.343 2.742 3.456 4.224 5.98 4.224 2.962 0 6.143-1.715 6.143-4.8a4.577 4.577 0 0 0-.11-1.03c-.548-2.495-3.346-2.88-5.896-3.153-2.934-.302-6.28-.74-6.555-4.457A4.862 4.862 0 0 1 76.48 2.4C77.685.838 79.85.04 82.018.04c2.825 0 5.596 1.373 6.117 4.198l.055.343-.576.084-.04-.274zm3.857 14.536a.655.655 0 0 1-.63.603.62.62 0 0 1-.66-.605.634.634 0 0 1 .66-.66c.35.018.628.307.63.66zm3.34.548v-8.287h-2.91V9.87h7.2v1.317h-2.894v8.284h-1.37z"/><path d="M106.286 9.878h1.48l-3.853 9.627h-1.028L99.03 9.878h1.51l2.852 7.2z"/></g></svg>
