<svg width="88" height="30" viewBox="0 0 88 30" xmlns="http://www.w3.org/2000/svg"><title>Vaughn-Live-Logotype</title><path d="M82.674 17.214v3.77h5.18v2.042H82.71v4.02H88v2.042h-7.638V15.2h7.603v2.02h-5.29v-.006zm-29.58-2.02H50.78V29.08h7.125v-2.04h-4.812V15.193zm18.79 11.165L68.84 15.19h-2.514l4.166 13.888h2.778l4.166-13.887h-2.5l-3.052 11.17zm-10.778 2.726h2.313V15.2h-2.316v13.888zM0 0v29.164h5.555v-2.777H2.778V2.777h2.777V0H0zm38.886 0h-2.778v2.778h2.778v23.61h-2.778v2.776h5.555V0h-2.777zm-7.29 9.027a3.11 3.11 0 0 0-1.987 5.52l-4.69 14.617h2.915L32.3 15.186a3.118 3.118 0 0 0-.693-6.16h-.015zM12.373 10.07l8.61 19.094h-3.048L9.763 11.11a3.125 3.125 0 1 1 2.61-1.04z" fill="#fff" fill-rule="evenodd"/></svg>
