<?xml version="1.0" encoding="utf-8"?>
<!-- Generator: Adobe Illustrator 21.1.0, SVG Export Plug-In . SVG Version: 6.00 Build 0)  -->
<svg version="1.1" id="Layer_1" xmlns="http://www.w3.org/2000/svg" xmlns:xlink="http://www.w3.org/1999/xlink" x="0px" y="0px"
	 width="826px" height="233.5px" viewBox="0 0 826 233.5" style="enable-background:new 0 0 826 233.5;" xml:space="preserve">
<style type="text/css">
	.st0{fill:#FFFFFF;}
</style>
<title>vimeo_logo_blue_on_white</title>
<path class="st0" d="M225.7,51.2c9.9,0.1,19.5-3.7,26.6-10.7c6.7-6.3,10.1-12.9,10.4-19.8c0.3-4.7-1.5-9.3-5.4-13.8
	c-3.5-4.4-8.9-6.9-14.5-6.8c-9.9,0-19.6,3.5-27.2,9.9c-8.2,6.6-12.4,13.5-12.6,20.6C202.3,44.3,209.9,51.2,225.7,51.2z M813,93.9
	c-10-13-24.6-19.5-44-19.5c-30.1,0-55.2,11-75.1,33.1c-18.5,19.9-27.1,41.7-25.7,65.4c0.1,1.8,0.2,3.5,0.4,5.1l-3.1,1.3
	c-23.5,10.1-45.2,15.2-65.1,15.2c-10,0-17.4-3.4-22.4-10.3c26.8-4.4,49.1-14.7,66.8-31c16.6-14.9,24.4-29.4,23.3-43.5
	c-1.7-22.1-16-33.1-43.1-33.1c-29.3,0-54.8,11.1-76.3,33.2c-19.6,20.2-29.6,41.5-29.9,63.9c-0.1,3.6,0.1,7.3,0.5,10.9
	c-4.7,3.1-8.2,4.6-10.5,4.6c-5.3,0-8.6-1.1-10-3.3s-1.9-6.2-1.7-12c0-2.2,1.7-10.7,5.2-25.4c3.5-14.7,5.3-26,5.6-33.7
	c0.5-11.3-1.7-20-6.6-26c-5.8-7.4-15.3-10.6-28.6-9.5c-11.1,0.8-21.7,5-31.9,12.4c-6.9,5.2-13.2,11.2-18.7,17.8
	c-2.2,1.9-4.3,3.8-6.2,5.4c0.3-11.3-1.9-20-6.6-26.1c-5.8-7.5-15.5-10.6-29-9.5c-15.8,1.4-30,7.6-42.7,18.7
	c-5.6,4.8-10.5,10.4-14.5,16.6c0.6-2.6,0.8-5.2,0.8-7.9c0.2-8-2.2-15.9-6.6-22.6c-4.4-6.5-10.2-9.5-17.4-8.9
	c-4.1,0.3-12,5.8-23.6,16.6c-16.1,14.9-24.8,23-26.1,24.1l10,11.2c7.7-5.6,12.4-8.4,14.1-8.4c3,0,4.3,2.5,3.7,7.4
	c-0.3,7.2-1.5,17.2-3.8,30c-1.4,7.9-2.4,14.8-3.1,20.6l-0.4,0.3c-10,8.2-16.9,12.3-20.7,12.3c-8.8,0-13.1-5.9-12.9-17.8
	c4.1-25.9,8-47.2,11.6-64.1c1.1-9.9-0.5-18-4.8-24.2s-11-8.9-20.2-8.1c-5.8,0.6-14.7,6.1-26.6,16.6L184.7,103
	c-0.8-19.6-9.8-29.6-26.9-30.1c-25.6-0.8-42.9,13.6-52,43.4c4.3-1.9,9-2.9,13.7-3c9.4,0,13.5,5.3,12.4,15.8
	c-0.6,6.4-4.7,15.7-12.4,27.9c-7.7,12.2-13.6,18.3-17.5,18.3c-5,0-9.5-9.4-13.7-28.2c-1.4-5.5-3.9-19.6-7.5-42.3
	c-3.3-21-12.2-30.9-26.5-29.5c-6.1,0.6-15.2,6.1-27.3,16.6c-8.8,8-17.8,16-27,24.1l8.7,11.2c8.3-5.8,13.1-8.7,14.5-8.7
	c6.3,0,12.3,9.9,17.8,29.8l14.9,54.7c7.4,19.9,16.5,29.8,27.3,29.8c17.4,0,38.6-16.3,63.8-49c17.7-22.7,29.1-41.9,34.4-57.6
	c7-5.1,11.2-7.7,12.8-7.7c5,0,7.5,3.6,7.5,10.8c0,1.4-2.7,11.6-8.1,30.7s-8.2,33.2-8.5,42.3c-0.3,8.9,1.9,16,6.4,21.6
	s11.1,8.3,19.7,8.3c18.5,0,37-8,55.6-24c1.6-1.4,3.2-2.9,4.8-4.4c1.2,5.7,3.8,10.9,7.7,15.2c8,8.6,21.5,12.6,40.4,12
	c-2.5-6.1-3.5-16.9-3-32.3c0.8-17.2,5.4-34,13.3-49.4c8-15.8,15.5-23.6,22.4-23.7c8,0,11.7,5.1,11.2,15.3c-0.5,8-1.8,15.9-4.1,23.6
	c-2.4,8.6-3.8,17.5-4,26.5c-0.6,14.1,2.6,24.2,9.5,30.3c7.7,6.9,21.2,10.1,40.5,9.5c-2.9-6.4-4-15.5-3.5-27.4
	c0.8-16.9,6.5-34.3,17.1-52.3c10-17.1,18.6-25.7,25.8-25.7c6.7,0,9.9,5.3,9.6,15.8c-0.3,6.9-2,16.6-5.2,29s-4.9,23.1-5.2,31.9
	c-0.6,19.9,8.1,29.9,26.1,29.9c18.5,0,37-8,55.6-24l0.9-0.8c0.6,1.1,1.3,2.2,2,3.2c9.7,14.9,25.7,22.4,48.1,22.4
	c30.1,0,59.9-8.4,89.2-25.3c3.3-1.9,6.4-3.7,9.3-5.5c1.8,3.7,4,7.2,6.6,10.4c11.3,14.1,27.9,21.1,49.8,21.1c26.3,0,48.3-9.2,66-27.8
	c17.7-18.5,27.1-40.5,28.2-65.9C826.7,121.2,822.4,105.8,813,93.9L813,93.9z M571.5,168.6c-0.2-3.6-0.2-5.4,0-5.4
	c0.3-10.4,4.7-21.4,13.2-32.8s17-17.1,25.3-17.1c6.4,0,9.4,3.7,9.1,11.1c-0.3,5.5-4.4,12.7-12.4,21.5
	C596.8,156,584.8,163.8,571.5,168.6L571.5,168.6z M779,138.4c-0.6,13.6-4.8,26.7-12,38.2c-8.8,14.7-19.5,22-31.9,22
	c-5.5,0-9.8-3-12.9-9.1c-2.8-5.7-4.1-12-3.7-18.3c0.6-14.2,4.9-27.9,12.5-39.9c9.1-15.2,20.7-22.9,34.8-22.9c4.4,0,7.8,3.1,10.2,9.4
	C778.3,124.3,779.4,131.3,779,138.4L779,138.4z"/>
</svg>
